
<svg width="24px" height="24px" viewBox="0 0 24 24" version="1.1" xmlns="http://www.w3.org/2000/svg" xmlns:xlink="http://www.w3.org/1999/xlink">
    <g id="Page-1" stroke="none" stroke-width="1" fill="none" fill-rule="evenodd">
        <g id="BV-Contact" transform="translate(-303.000000, -1311.000000)">
            <g id="Group-3" transform="translate(303.000000, 1311.000000)">
                <rect id="Rectangle" fill="#FFFFFF" x="0" y="0" width="24" height="24"></rect>
                <path d="M19.5220556,6.28281778 C19.3143242,6.09432082 19.0673742,6 18.7815244,6 C18.4959934,6 18.248884,6.09432082 18.0411526,6.28281778 L9.6372,13.9086267 L6.22135046,10.8087702 C6.01345969,10.6201286 5.7666691,10.5259525 5.48097871,10.5259525 C5.19528832,10.5259525 4.94849774,10.6201286 4.74060697,10.8087702 L3.31183616,12.1052474 C3.10394538,12.2938891 3,12.5178287 3,12.777211 C3,13.0364485 3.10394538,13.2603881 3.31183616,13.4490298 L8.8969876,18.5170375 C9.1048784,18.7058238 9.35166896,18.8 9.63735936,18.8 C9.92304976,18.8 10.1698404,18.7058238 10.3777311,18.5170375 L20.9508264,8.92307728 C21.1585578,8.73458032 21.2626626,8.510496 21.2626626,8.25125846 C21.2626626,7.99202089 21.1587172,7.76793662 20.9509858,7.57943966 L19.5220556,6.28281778 Z" id="Shape-Copy-6" fill="#1E87BD"></path>
            </g>
        </g>
    </g>
</svg>
