<?xml version="1.0" encoding="UTF-8"?>
<svg width="810px" height="480px" viewBox="0 0 810 480" version="1.1" xmlns="http://www.w3.org/2000/svg" xmlns:xlink="http://www.w3.org/1999/xlink">
    <title>family</title>
    <defs>
        <polygon id="path-1" points="0 9.09494702e-13 74 9.09494702e-13 74 136 0 136"></polygon>
        <polygon id="path-3" points="0 0 120 0 120 258 0 258"></polygon>
        <polygon id="path-5" points="0 0 108 0 108 201 0 201"></polygon>
    </defs>
    <g id="family" stroke="none" stroke-width="1" fill="none" fill-rule="evenodd">
        <g>
            <g id="Group-2" transform="translate(-0.000000, 135.946798)">
                <path d="M131.698932,150.586467 C114.905866,145.198991 99.4715937,162.295836 93.1116797,170.678805 C103.7194,155.427159 137.303961,105.231768 121.495391,102.929603 C102.84499,100.214592 83.0009262,145.515716 83.0009262,145.515716 C83.0009262,145.515716 103.308931,49.3605393 88.3197267,47.8415201 C64.5125116,45.4274771 66.009702,109.658039 66.009702,109.658039 C62.6709044,93.1710074 39.7679797,26.9045821 27.7700113,45.2273574 C15.7736157,63.548557 53.9126549,121.742435 53.9126549,121.742435 C41.8863783,103.832505 5.46942268,77.7129384 3.80395558,90.6766013 C2.74554259,98.9240563 22.1351024,120.519656 36.3898651,135.150458 C17.0773666,121.120015 -9.01809656,114.456185 3.08681394,137.195777 C16.8509008,163.05377 50.9481549,185.582211 59.6670875,191.053202 L90.7463705,191.053202 C107.496975,181.567211 149.470206,156.287516 131.698932,150.586467" id="Fill-9" fill="#E6E7E8"></path>
                <g id="Group-6" transform="translate(111.000000, 72.053202) scale(1, -1) rotate(-230.000000) translate(-111.000000, -72.053202) translate(74.000000, 4.053202)">
                    <mask id="mask-2" fill="white">
                        <use xlink:href="#path-1"></use>
                    </mask>
                    <g id="Clip-5"></g>
                    <path d="M73.0513154,23.3238715 C66.5453578,13.5305647 57.6457599,26.8014013 55.1788009,30.8973899 C48.2544954,32.1780371 43.2580407,33.7793666 43.0057381,33.8605784 C43.393896,32.0156135 47.0253287,18.8197417 47.0253287,18.8197417 C51.7586986,9.50954077 58.493238,1.18221056 51.5969661,0.145198692 C39.242763,-1.71017796 44.435453,14.759153 45.7832234,18.5469534 C45.1858916,21.5996831 44.0623901,27.0096366 42.3415568,34.0563196 C41.535051,31.5970605 39.143567,27.7384602 37.2264983,24.8606481 C37.2415934,21.1103301 36.9051899,2.37331655 28.3937499,7.51672881 C17.9221125,13.8491647 32.5491957,22.884495 36.3531431,25.0355658 C38.7187498,29.9894839 41.0822001,33.6377666 42.0827849,35.1037432 C40.8061767,40.2721437 39.2190422,46.2651561 37.2976606,52.8120743 C37.0582966,52.8849567 36.9310671,52.9266038 36.9310671,52.9266038 C37.0130115,52.9724155 37.1165203,53.0057332 37.2329676,53.0328038 C37.1769004,53.2306273 37.1165203,53.4263685 37.060453,53.6221097 C36.3100144,51.1607683 33.5368419,46.883615 32.0208697,44.6534147 C31.1906431,39.4933437 28.0185306,23.8007304 20.869956,29.6396486 C10.0921052,38.439673 32.251608,46.2380855 32.251608,46.2380855 C32.251608,46.2380855 32.2429823,46.1631208 32.2278873,46.0506737 C34.1018273,50.1695682 36.0232089,53.2014744 36.8254019,54.4050745 C34.9449925,60.7270986 32.7562133,67.5301464 30.2374998,74.5934882 C30.088706,74.6205588 30.0024487,74.6372176 30.0024487,74.6372176 C30.0563595,74.6747 30.118896,74.7080176 30.1857455,74.7413353 C29.7609282,75.9282766 29.3253288,77.1235473 28.8832601,78.325065 C29.5539107,76.6425237 26.9209063,70.4745937 25.5386329,67.4510169 C25.5796051,67.4718405 25.6054823,67.4864169 25.6054823,67.4864169 C25.6054823,67.4864169 26.6772294,37.921167 14.8233186,44.9324501 C1.09546783,53.0536273 21.4586622,65.1645932 25.0642177,67.1886404 C26.6082235,73.7230646 28.8638522,78.3313121 28.8724779,78.3500533 C21.8058478,97.5118669 12.3110745,118.185469 0,136 L4.31070904,136 C10.6570906,125.019752 21.9007309,103.644397 31.6499633,75.0599353 C33.3406066,75.2015353 35.8787279,74.9724765 38.1882673,74.6705353 C43.7195173,76.219806 63.621235,81.1341594 60.6086985,70.682829 C56.5783257,56.7060747 40.1506211,71.1409467 37.2351241,73.8417587 C35.0010598,73.9625352 33.1616226,74.1666058 31.8936402,74.3394411 C34.1643639,67.6405111 36.3488302,60.5500986 38.3672513,53.1119332 C40.5409355,53.0328038 44.4332966,52.0936625 47.8965275,51.1378624 C47.7585158,51.306533 47.6765714,51.406486 47.6765714,51.406486 C47.6765714,51.406486 71.7962716,55.8335688 67.4920318,45.9132384 C62.9915567,35.5410374 52.4358184,46.017356 48.8777044,50.0008976 C44.275877,50.8650742 40.5517176,51.8583566 38.5483916,52.4393331 C39.9932015,47.0751914 41.3474413,41.529885 42.5852337,35.8221551 L42.5873901,35.8242374 C42.5873901,35.8242374 42.5895466,35.8075786 42.5895466,35.8013315 C42.7275583,35.1620491 42.5938594,35.8054962 42.7275583,35.1620491 C44.5993419,34.2249902 49.9861109,33.1942254 54.5944076,31.9010841 C54.5491225,31.9822959 54.516776,32.0385194 54.516776,32.0385194 C54.516776,32.0385194 79.0656063,32.377943 73.0513154,23.3238715" id="Fill-4" fill="#E6E7E8" mask="url(#mask-2)"></path>
                </g>
            </g>
            <path d="M640,480 L810,480 C810,480 733.182711,432.75 640,480" id="Fill-7" fill="#E6E7E8"></path>
            <g id="Group-9-Copy" transform="translate(574.000000, 221.000000)">
                <g id="Group-3">
                    <mask id="mask-4" fill="white">
                        <use xlink:href="#path-3"></use>
                    </mask>
                    <g id="Clip-2"></g>
                    <path d="M93.6153061,258 L99.9420713,258 C97.8134691,234.016218 92.167235,190.363806 77.2701266,137.577086 C79.9549622,136.080627 83.5223132,133.153044 86.6701585,130.346795 C96.5829195,127.151654 131.579005,114.635536 116.110126,101.438078 C95.4269486,83.788578 85.9119411,122.867613 84.3706466,130.023237 C81.145115,132.471704 78.6032221,134.652614 76.884803,136.205073 C73.2677329,123.489842 69.1161816,110.258161 64.3493555,96.6469216 C67.5282754,94.3197885 72.3821101,88.9188486 76.5740582,83.9254682 C76.5398762,84.3268053 76.524339,84.5663631 76.524339,84.5663631 C76.524339,84.5663631 117.331353,67.0195308 100.482767,55.9532041 C82.869749,44.3859839 78.0159143,71.3657941 76.8537285,81.1658866 C70.8532454,87.1672765 66.313263,92.4873267 63.9174202,95.4149099 C60.4650448,85.6148174 56.6863874,75.6218342 52.5628031,65.4919608 L52.569018,65.495072 C52.569018,65.495072 52.5534808,65.4670717 52.5472659,65.4546272 C52.0873635,64.322172 52.5565882,65.4577383 52.0873635,64.322172 C53.9083284,60.9683626 60.9063025,53.9091849 66.4624206,47.2326774 C66.4779578,47.4069013 66.4903876,47.5251246 66.4903876,47.5251246 C66.4903876,47.5251246 103.65858,23.1897838 85.1537236,15.2034862 C65.1386475,6.56384911 65.6948808,36.2130178 66.2884034,45.0797682 C57.2457281,54.0834087 51.4316919,61.6341467 51.1364843,62.0199281 C49.7878516,58.7563417 41.4070628,34.5610022 41.4070628,34.5610022 C38.7533017,15.2905981 40.1236866,-4.47758844 28.7007056,0.895351161 C8.22883453,10.5243309 33.2717625,30.8711896 39.2629233,35.3947879 C41.5624352,40.7459495 45.5430768,50.2940396 50.3440849,62.993715 C46.5592125,59.9883533 38.9335338,56.4105418 33.0418113,53.8780734 C29.1357484,48.0291294 9.00258922,19.2386354 1.62861379,35.8583478 C-7.44202856,56.3109853 23.9556317,55.5425336 31.9169149,55.0323066 C40.6519528,60.3399122 48.0197133,63.6190543 51.058798,64.8852884 C54.5577851,74.2124876 58.4545256,85.1357018 62.4320598,97.2629274 C62.149282,97.6207085 62.0032319,97.8135992 62.0032319,97.8135992 C62.1710341,97.8011547 62.3636959,97.7451541 62.5687875,97.6735979 C62.6868706,98.0344902 62.8049536,98.4016048 62.9261441,98.7656082 C59.218958,95.6949126 50.580251,91.8557652 45.9719047,89.923747 C39.3219648,82.7432348 18.1260582,61.5563681 13.5239269,77.8711888 C6.5818868,102.474088 47.9793165,92.1513236 47.9793165,92.1513236 C47.9793165,92.1513236 47.8860931,92.0455448 47.7462579,91.8837655 C54.8716374,96.3886969 60.9280547,99.1607231 63.3953688,100.2154 C67.1957784,111.950622 71.0427997,124.746742 74.6629773,138.280203 C74.4703155,138.469983 74.3553399,138.585095 74.3553399,138.585095 C74.4765304,138.588206 74.6070432,138.578873 74.7406635,138.560206 C75.346616,140.837561 75.949461,143.136694 76.5429837,145.454493 C75.7878737,142.156684 65.3748136,135.234397 60.1356553,131.930366 C60.2195564,131.924143 60.272383,131.921032 60.272383,131.921032 C60.272383,131.921032 30.9069941,84.8681437 20.4752893,107.775471 C8.39663676,134.304166 51.6212462,132.509038 59.1474866,132.005033 C68.3113524,140.601114 76.5212315,145.482494 76.5554135,145.50116 C85.5297249,180.495268 92.7079311,219.816973 93.6153061,258" id="Fill-1" fill="#E6E7E8" mask="url(#mask-4)"></path>
                </g>
                <g id="Group-6" transform="translate(110.000000, 57.000000)">
                    <mask id="mask-6" fill="white">
                        <use xlink:href="#path-5"></use>
                    </mask>
                    <g id="Clip-5"></g>
                    <path d="M106.615845,34.4714684 C97.1206267,19.9974705 84.1319742,39.6110765 80.5315336,45.6647345 C70.4257514,47.5574644 63.1336003,49.9241462 62.7653734,50.044173 C63.3318763,47.3174109 68.6318256,27.8145989 68.6318256,27.8145989 C75.5400136,14.0546064 85.3688388,1.74724569 75.3039708,0.214596111 C57.2734426,-2.52755403 64.8519924,21.8132602 66.8190163,27.411432 C65.9472313,31.9232077 64.3075202,39.9188374 61.796024,50.3334683 C60.6189569,46.6988113 57.1286696,40.9960008 54.3307747,36.7427443 C54.3528054,31.1999694 53.8618362,3.50763837 41.4396867,11.1093341 C26.1566975,20.4683448 47.5044149,33.8220928 53.0561432,37.0012635 C56.5086636,44.3228967 59.9580368,49.7148687 61.4183554,51.8815059 C59.5551903,59.5201329 57.2388229,68.3774933 54.4346336,78.0534978 C54.0852902,78.1612142 53.8996031,78.2227664 53.8996031,78.2227664 C54.0191982,78.2904738 54.1702656,78.3397155 54.3402165,78.3797244 C54.2583883,78.6720974 54.1702656,78.9613927 54.0884374,79.250688 C52.9931985,75.6129534 48.94585,69.2915433 46.7333415,65.9954235 C45.5216547,58.3691069 40.8920672,35.176241 30.4589723,43.8058583 C14.7290752,56.8118364 47.070096,68.3374844 47.070096,68.3374844 C47.070096,68.3374844 47.057507,68.2266904 47.0354764,68.0604995 C49.7704265,74.1480113 52.5746158,78.6290108 53.7453884,80.4078692 C51.0009966,89.7514919 47.8065498,99.8060424 44.1305754,110.245294 C43.913416,110.285303 43.7875264,110.309924 43.7875264,110.309924 C43.8662074,110.365321 43.9574773,110.414563 44.0550417,110.463804 C43.4350358,112.218042 42.7992936,113.98459 42.1541098,115.760371 C43.1329009,113.273662 39.2901229,104.157782 37.2727432,99.6890932 C37.3325407,99.7198693 37.3703076,99.7414126 37.3703076,99.7414126 C37.3703076,99.7414126 38.934485,56.0455117 21.6341161,66.4078231 C1.59879706,78.4105005 31.3181683,96.3098779 36.5803507,99.3013144 C38.8337734,108.958853 42.1257846,115.769603 42.1383736,115.797302 C31.8248737,144.117465 17.9675834,174.671973 0,201.000923 L6.29132936,201.000923 C15.5536517,184.772688 31.9633522,153.181025 46.1920165,110.934679 C48.6594513,111.143956 52.3637508,110.805419 55.734443,110.359166 C63.8071093,112.648907 92.8529715,119.912066 88.4562796,104.465543 C82.5740912,83.8086278 58.5984299,105.142617 54.3433637,109.134277 C51.0828248,109.312778 48.3982306,109.614384 46.5476544,109.869826 C49.8616964,99.9691557 53.0498488,89.4898951 55.9956638,78.4966736 C59.16808,78.3797244 64.8488451,76.9917225 69.9033098,75.5790997 C69.7018866,75.8283861 69.5822915,75.9761114 69.5822915,75.9761114 C69.5822915,75.9761114 104.784152,82.5191093 98.5022643,67.8573773 C91.9339779,52.5278039 76.5282465,68.0112577 71.3353033,73.8987249 C64.6190967,75.1759329 59.1838162,76.6439526 56.2600318,77.5026057 C58.3686815,69.5746834 60.3451471,61.3790091 62.1516619,52.9432812 L62.1548092,52.9463588 C62.1548092,52.9463588 62.1579564,52.9217379 62.1579564,52.9125051 C62.3593796,51.967679 62.1642509,52.9186603 62.3593796,51.967679 C65.0911825,50.5827546 72.9529838,49.0593379 79.678632,47.1481423 C79.61254,47.2681691 79.5653314,47.3512646 79.5653314,47.3512646 C79.5653314,47.3512646 115.393492,47.8529149 106.615845,34.4714684" id="Fill-4" fill="#E6E7E8" mask="url(#mask-6)"></path>
                </g>
            </g>
            <path d="M9,341.105263 L144,341.105263 C144,341.105263 82.9980354,309.131579 9,341.105263" id="Fill-7" fill="#E6E7E8"></path>
            <g transform="translate(69.000000, 0.000000)">
                <g id="Group" transform="translate(0.000000, 418.893272)" fill="#EEEEEE">
                    <path d="M261.71319,7.3667035 C245.962946,7.3667035 231.253852,7.91016057 218.75863,8.85262953 C212.317233,3.86712605 165.99753,0 109.776897,0 C49.1485406,0 0,4.49639212 0,10.0425145 C0,15.590067 49.1485406,20.0864591 109.776897,20.0864591 C136.360528,20.0864591 160.736007,19.2212182 179.729832,17.7824872 C181.33589,23.1569915 217.414289,27.4531626 261.71319,27.4531626 C307.033218,27.4531626 343.773776,22.9567705 343.773776,17.409218 C343.773776,11.8630956 307.033218,7.3667035 261.71319,7.3667035" id="Fill-158"></path>
                    <path d="M525.436742,33.5175713 C525.436742,38.8134174 480.588663,43.1067282 425.264734,43.1067282 C369.942235,43.1067282 325.092726,38.8134174 325.092726,33.5175713 C325.092726,28.2217253 369.942235,23.9284145 425.264734,23.9284145 C480.588663,23.9284145 525.436742,28.2217253 525.436742,33.5175713" id="Fill-118"></path>
                </g>
                <path d="M218.449717,223.539622 C217.108236,226.214002 216.594812,230.198401 219.552363,235.459923 C222.509914,240.721446 221.497367,264.057206 229.185855,266.422674 C236.875772,268.788143 266.598583,258.755639 266.598583,258.755639 L267.152051,253.891699 C267.61685,249.818631 263.788338,246.586492 259.851134,247.724891 L235.04661,254.898524 L229.885198,234.068387 C229.885198,234.068387 229.174413,227.885848 228.874082,222.891764 C228.57232,217.899109 222.256777,215.951245 218.449717,223.539622" id="Fill-1" fill="#CFD1D2"></path>
                <path d="M280.41083,252.09114 C280.41083,252.09114 281.513476,248.625886 275.975934,244.086589 C270.438393,239.547292 259.150218,243.344341 254.743925,246.028733 C250.336202,248.713125 254.894091,260.015602 259.115894,262.546967 C263.337697,265.076903 277.338868,258.802834 280.41083,252.09114" id="Fill-3" fill="#6D6E70"></path>
                <path d="M253.98237,247.990184 C258.610336,245.19138 270.503465,241.299941 276.425717,246.209647 C278.585243,248.000195 279.805162,249.626276 280.487343,250.970617 C280.388663,249.594812 279.619242,247.073458 275.97665,244.085874 C270.439108,239.546577 259.150933,243.345056 254.74321,246.029448 C253.776429,246.61867 253.241552,247.624066 253.039901,248.859715 C253.294468,248.516479 253.60338,248.219008 253.98237,247.990184" id="Fill-5" fill="#59595C"></path>
                <path d="M101.86788,100.864058 C101.86788,100.864058 50.9359423,114.706481 38.9741663,123.900917 C27.0138205,133.096782 29.0074498,156.519782 42.9614249,160.009348 C56.9154001,163.497484 66.3858545,153.884015 69.3791588,146.053943 C71.3699278,140.851056 69.3791588,135.090411 69.3791588,135.090411 C69.3791588,135.090411 92.0584801,118.643685 105.636326,117.149178 C119.212741,115.653241 106.071091,99.6899044 101.86788,100.864058" id="Fill-7" fill="#6DCEF5"></path>
                <path d="M69.3798739,135.089982 C69.3798739,135.089982 81.7120588,126.147253 93.6323604,120.851407 C96.0364428,114.581629 99.0755119,105.528779 96.2881493,106.183787 C92.0520445,107.180602 86.5688487,116.649626 84.0775271,119.391224 C81.5862056,122.132822 61.9001885,127.365741 61.9001885,127.365741 C61.9001885,127.365741 55.7176494,128.96894 60.7532081,135.089982" id="Fill-9" fill="#68C4E9"></path>
                <path d="M114.310187,73.5406098 C114.310187,73.5406098 111.239654,84.2552948 110.989378,93.4754729 L129.385399,93.4754729 C129.385399,93.4754729 127.596282,80.2680361 129.385399,71.5469804 C129.385399,71.5469804 120.122317,68.3076903 114.310187,73.5406098" id="Fill-11" fill="#CFD1D2"></path>
                <path d="M114.310187,73.5406098 C114.310187,73.5406098 113.350556,76.8914516 112.459572,81.4564909 C113.566508,82.7479165 114.91085,83.5917051 116.545511,83.5917051 C120.981837,83.5917051 125.727075,80.1207307 128.681766,77.4978353 C128.791887,75.4255477 129.00784,73.3861535 129.385399,71.5469804 C129.385399,71.5469804 120.122317,68.3076903 114.310187,73.5406098" id="Fill-13" fill="#BABCBE"></path>
                <path d="M58.1723591,410.710382 C58.1723591,410.710382 50.5153351,415.092362 46.5538192,419.823298 C46.5538192,419.823298 27.3511929,422.682169 24.4351167,427.579003 C21.5190405,432.475837 71.6500943,437.181031 77.2162387,435.918208 C82.7823832,434.655386 76.4654099,413.600715 76.4654099,413.600715 L58.1723591,410.710382 Z" id="Fill-15" fill="#58585B"></path>
                <path d="M162.138556,390.295989 C162.138556,390.295989 163.183995,402.433674 165.395007,407.770994 C165.395007,407.770994 159.452734,424.942807 162.252968,429.483534 C165.054632,434.024261 190.665761,394.460586 192.027264,389.293454 C193.388767,384.127751 173.182175,380.253475 173.182175,380.253475 L162.138556,390.295989 Z" id="Fill-17" fill="#58585B"></path>
                <path d="M86.3699148,212.037496 L105.74845,311.79476 L150.778158,402.812377 L181.905376,378.126555 L124.523461,303.572827 C124.523461,303.572827 127.616876,280.231346 131.987415,264.582643 C137.479191,244.915218 150.686628,229.707001 146.353273,213.540584 L86.3699148,212.037496 Z" id="Fill-19" fill="#59595C"></path>
                <path d="M86.3699148,119.640356 C89.1672886,112.860014 94.7920692,97.5860105 117.318364,97.8934928 C135.431216,98.1423389 150.249002,107.574179 148.80026,120.790197 C144.062173,163.996464 151.693454,209.879971 151.693454,209.879971 L84.4048885,207.0068 C84.4048885,207.0068 76.4732757,143.623975 86.3699148,119.640356" id="Fill-21" fill="#6DCEF5"></path>
                <path d="M95.3695638,207.0068 C95.3695638,207.0068 87.4365208,143.623975 97.3345901,119.640356 C99.8673861,113.500722 104.719886,100.397686 122.339336,98.2038354 C120.701814,98.0222063 119.024248,97.9178054 117.318078,97.8934928 C94.7932133,97.5860105 89.1684327,112.860014 86.3696288,119.640356 C76.4729897,143.623975 84.4060326,207.0068 84.4060326,207.0068 L95.3695638,207.0068 Z" id="Fill-23" fill="#68C4E9"></path>
                <polygon id="Fill-25" fill="#68C4E9" points="154.881545 213.647273 81.2545537 212.730547 81.2545537 205.575505 154.881545 206.492232"></polygon>
                <path d="M97.6400702,213.063915 L101.644491,230.325827 L72.2420334,310.038107 L42.7437561,418.892557 L88.5357343,418.892557 L95.494845,312.5423 C95.494845,312.5423 104.027121,280.798687 124.473978,264.582214 C140.036872,252.238588 152.474888,241.915764 150.58852,213.647416 L97.6400702,213.063915 Z" id="Fill-27" fill="#6D6E70"></path>
                <polygon id="Fill-29" fill="#59595C" points="105.748307 230.326542 101.753897 213.108964 97.6407853 213.06463 101.645206 230.326542 72.2413183 310.037392 42.7444712 418.893272 46.847572 418.893272 76.3458493 310.037392"></polygon>
                <path d="M105.748307,103.194058 C105.748307,103.194058 95.9861015,95.2195411 101.868309,91.2337125 C107.750517,87.2464539 122.370942,85.2528245 133.002678,88.2432685 C143.632984,91.2337125 135.659897,103.194058 135.659897,103.194058 C135.659897,103.194058 115.706442,106.682195 105.748307,103.194058" id="Fill-31" fill="#6DCEF5"></path>
                <path d="M133.001963,88.2426965 C131.839251,87.9151921 130.626484,87.6520445 129.385113,87.4403822 C136.188338,90.65679 135.581954,99.7411038 135.054229,103.293597 C135.44466,103.23067 135.659182,103.193486 135.659182,103.193486 C135.659182,103.193486 143.6337,91.2331405 133.001963,88.2426965" id="Fill-33" fill="#68C4E9"></path>
                <path d="M143.529871,58.8386661 C144.689722,56.6405253 147.295456,51.1930833 144.209192,48.8776702 C141.124358,46.562257 134.421244,59.0088539 136.795294,62.7944614 C139.169343,66.5800689 142.653189,60.5005006 143.529871,58.8386661" id="Fill-35" fill="#CFD1D2"></path>
                <path d="M105.94152,31.4607294 C105.037665,41.0684782 106.154612,60.7673666 109.053527,69.3482676 C111.699304,77.1812 127.569681,80.1373204 132.143301,73.5757915 C136.715491,67.0142625 144.172294,51.5829422 145.864162,37.4702204 C147.139856,26.828473 139.321225,21.5111747 128.620841,17.6983943 C118.22508,13.9928753 107.005552,20.1453813 105.94152,31.4607294" id="Fill-37" fill="#CFD1D2"></path>
                <path d="M144.923838,43.0425145 C145.32142,41.1775986 145.643204,39.3126828 145.863447,37.4706494 C147.139141,26.828902 139.32051,21.5116037 128.621556,17.6988234 C118.224365,13.9933043 107.006267,20.1458103 105.942235,31.4611584 C105.647624,34.5803159 105.568966,38.7677956 105.693389,43.2899304 C110.620256,42.7150101 116.676942,40.4582331 118.896535,33.1744783 C118.896535,33.1744783 132.505844,43.8848729 144.923838,43.0425145" id="Fill-39" fill="#BABCBE"></path>
                <path d="M113.251446,25.9886888 C113.251446,25.9886888 123.711565,36.9221868 138.826822,41.1396997 C153.942079,45.3572125 158.504258,32.3113827 158.504258,32.3113827 C158.504258,32.3113827 151.027433,33.4755249 149.033804,31.3660534 C147.040174,29.2580121 141.824417,14.4931418 130.438991,11.4712345 C119.053566,8.45075733 108.24163,19.085354 113.251446,25.9886888" id="Fill-41" fill="#58585B"></path>
                <path d="M120.758448,24.0524085 C120.758448,24.0524085 115.012104,43.1020087 105.088292,41.723344 C102.96881,41.428733 99.1631801,34.219346 102.096418,26.4164467 C105.029656,18.6121173 115.329598,14.7092375 119.211025,16.6170578 C123.092453,18.523448 120.758448,24.0524085 120.758448,24.0524085" id="Fill-43" fill="#58585B"></path>
                <path d="M107.778977,47.1127218 C107.355652,44.6142495 106.09426,38.5604238 102.238575,38.1671325 C98.3828902,37.7738413 100.672561,51.9923942 104.86147,54.0246376 C109.05038,56.056881 108.09933,49.0019502 107.778977,47.1127218" id="Fill-45" fill="#CFD1D2"></path>
                <path d="M148.482338,123.901632 L140.97977,126.425847 L148.140532,176.985946 C147.109393,161.623272 146.686069,142.622297 148.482338,123.901632" id="Fill-47" fill="#68C4E9"></path>
                <path d="M140.980199,104.900371 C140.980199,104.900371 162.967328,117.37414 181.905376,140.299447 C200.843425,163.224755 223.609985,205.282611 223.609985,205.282611 L194.206098,222.012507 C194.206098,222.012507 172.934044,171.409504 165.957772,160.588988 C158.980069,149.768472 140.403848,129.109953 138.530352,122.629942 C136.656855,116.151362 135.502724,103.234246 140.980199,104.900371" id="Fill-49" fill="#6DCEF5"></path>
                <path d="M48.1944874,133.594903 C42.9815901,134.078294 34.3978288,134.757616 31.1213547,145.722577 C27.8448807,156.686108 38.2878372,160.885029 42.4638757,163.018813 C50.7115517,167.234896 61.8996165,164.654905 68.1865566,155.767952 C72.5756874,149.56253 70.2888773,138.827823 64.6412143,136.834194 C58.9921212,134.840564 53.4746018,133.105792 48.1944874,133.594903" id="Fill-51" fill="#68C4E9"></path>
                <path d="M46.7799259,142.39948 C47.7181044,141.366912 50.4039264,140.488799 51.0689462,138.828395 C51.7325359,137.16656 53.3071312,130.97401 56.6050575,130.633635 C59.904414,130.291829 69.3791588,130.291829 69.3791588,130.291829 L66.7362413,152.447715 C66.7362413,152.447715 62.1311578,156.047403 53.9263863,156.520783 C46.9486836,156.922655 39.4732887,150.444075 46.7799259,142.39948" id="Fill-53" fill="#CFD1D2"></path>
                <polygon id="Fill-55" fill="#CFD1D2" points="68.8073848 135.089982 73.6112592 135.089982 71.7978288 146.515452 67.5488526 145.63591"></polygon>
                <path d="M47.571228,150.443932 C45.7306247,146.541052 48.0875122,142.500878 49.7307547,140.367094 C48.6881753,141.143665 47.3781577,141.740038 46.7803549,142.399337 C39.4737177,150.443932 46.9491127,156.922512 53.9253852,156.52064 C54.7291296,156.473445 55.485679,156.390496 56.2179159,156.290385 C53.78094,155.806995 49.4404342,154.408308 47.571228,150.443932" id="Fill-57" fill="#BABCBE"></path>
                <path d="M304.480543,274.482143 C304.480543,274.482143 315.599961,296.134616 321.277657,298.64739 C326.956783,301.161594 332.871885,299.535513 332.428538,295.542534 C331.985191,291.549555 323.555886,285.487148 323.555886,285.487148 C323.555886,285.487148 317.936826,273.509641 315.275317,270.404785 C312.613807,267.298498 304.184502,271.018319 304.480543,274.482143" id="Fill-59" fill="#CFD1D2"></path>
                <path d="M316.778691,272.546291 C316.223792,271.656738 315.710369,270.91163 315.275603,270.403926 C312.614093,267.29907 304.184788,271.018891 304.480829,274.482715 C304.480829,274.482715 305.092934,275.6726 306.095469,277.514633 C309.703738,277.370188 314.334564,274.34256 316.778691,272.546291" id="Fill-61" fill="#BABCBE"></path>
                <path d="M323.77756,285.649756 C323.408581,286.816759 321.550816,287.355925 320.795697,287.902243 C319.415602,288.901918 318.593265,290.765403 318.463122,293.521303 C318.360151,295.679399 320.609777,298.302295 323.11826,299.317701 C323.830475,299.523643 324.534109,299.668088 325.217721,299.752467 L325.217721,299.752467 C326.038627,299.739596 327.101229,299.732445 328.225327,299.731015 C330.873965,299.317701 332.680244,297.813183 332.428538,295.542105 C332.028096,291.933836 325.107599,286.63656 323.77756,285.649756" id="Fill-63" fill="#BABCBE"></path>
                <path d="M309.963453,354.839277 C309.963453,354.839277 258.925684,361.043269 243.674563,350.547396 C243.674563,350.547396 302.778379,343.601157 309.963453,354.839277" id="Fill-65" fill="#68C4E9"></path>
                <path d="M276.884652,334.888396 L299.9115,373.187818 L353.810999,373.982981 C353.810999,373.982981 355.695937,372.201014 353.278983,364.290854 L310.147084,360.06762 C310.147084,360.06762 298.055165,315.946057 286.223532,317.220321 C274.39333,318.493155 272.025002,322.021335 276.884652,334.888396" id="Fill-67" fill="#CFD1D2"></path>
                <path d="M309.520536,373.329546 L353.810856,373.983124 C353.810856,373.983124 355.695794,372.201157 353.27884,364.290997 L313.544978,360.400988 C310.969278,365.429396 309.919548,369.991575 309.520536,373.329546" id="Fill-69" fill="#6DCEF5"></path>
                <path d="M352.649145,373.965676 C352.649145,373.965676 355.969954,378.09881 358.873159,383.151531 C361.142807,387.101606 362.990561,393.71033 365.26593,394.429695 C367.303894,395.073263 368.643945,391.71098 369.394773,385.023597 C370.556055,374.683612 367.013573,360.713905 364.931275,360.432165 C361.501775,359.970227 353.278411,364.290711 353.278411,364.290711 C353.278411,364.290711 354.471156,369.23617 352.649145,373.965676" id="Fill-71" fill="#58585B"></path>
                <path d="M309.494614,373.193824 C309.508951,369.890177 310.048118,364.359787 313.024261,359.786167 C313.657817,358.815095 314.654632,358.268777 315.625704,358.350296 C317.120211,358.477579 318.099863,360.037873 317.815264,361.826991 C317.284678,365.162101 316.343639,370.334954 315.156614,373.754443 C314.681805,375.125957 313.540545,376.072717 312.336358,376.079867 L311.938777,376.082758 C310.54152,376.089878 309.487499,374.844218 309.494614,373.193824" id="Fill-73" fill="#68C4E9"></path>
                <path d="M254.592043,321.300397 L245.756575,363.23383 L233.982149,427.197296 C233.982149,427.197296 235.70119,429.356822 245.504869,426.143275 L259.149932,374.800884 C259.149932,374.800884 281.670506,342.752649 282.550049,328.774361 C283.429591,314.797504 261.785698,312.065917 254.592043,321.300397" id="Fill-75" fill="#CFD1D2"></path>
                <path d="M243.656972,374.638133 L233.982006,427.197582 C233.982006,427.197582 235.701047,429.355678 245.504726,426.143561 L258.074316,378.845635 C252.669778,376.011077 247.506936,374.965637 243.656972,374.638133" id="Fill-77" fill="#6DCEF5"></path>
                <path d="M243.822154,374.601378 C247.709302,374.474095 254.114945,374.871677 258.901658,378.201066 C259.919925,378.90899 260.361841,380.068842 260.07009,381.222973 C259.621023,383.00065 257.58735,384.230579 255.536514,383.971722 C251.715153,383.488331 245.812923,382.598778 242.023025,381.341676 C240.504206,380.838263 239.617513,379.526815 239.852057,378.098095 L239.929286,377.627576 C240.201014,375.970032 241.88001,374.665735 243.822154,374.601378" id="Fill-79" fill="#68C4E9"></path>
                <path d="M255.747891,307.899603 L235.424027,342.121667 C235.424027,342.121667 236.871338,348.119717 246.071495,351.586401 C264.908002,358.684236 292.976129,348.332809 309.963453,354.839992 C309.963453,354.839992 309.963453,324.377794 298.713892,312.923721 C291.135526,305.208061 255.747891,307.899603 255.747891,307.899603" id="Fill-81" fill="#6DCEF5"></path>
                <path d="M275.534161,245.572801 C275.534161,245.572801 263.259182,250.698459 261.681727,262.528662 C260.104271,274.358864 255.748034,307.900176 255.748034,307.900176 C255.748034,307.900176 262.336735,321.715426 298.714035,312.924293 C298.714035,312.924293 295.318858,288.001066 299.600728,271.439927 C304.712085,251.669531 295.087174,247.863902 287.474485,246.443763 C281.321979,245.295352 275.534161,245.572801 275.534161,245.572801" id="Fill-83" fill="#6D6E70"></path>
                <path d="M292.9757,236.909094 C292.9757,236.909094 289.343119,243.743782 289.293064,248.812234 C289.293064,248.812234 283.033296,253.517428 275.492115,251.706858 C275.492115,251.706858 274.88001,244.189989 277.992017,238.761139 C281.102594,233.330859 290.653137,233.971566 292.9757,236.909094" id="Fill-85" fill="#CFD1D2"></path>
                <path d="M277.991588,238.760567 C277.192134,240.154963 276.622934,241.83825 276.216772,243.567302 C277.174972,244.661366 277.368043,246.584918 279.021296,246.436183 C283.908119,245.991406 289.565793,240.488188 292.308821,236.272106 C289.208256,233.910928 280.861899,233.752181 277.991588,238.760567" id="Fill-87" fill="#BABCBE"></path>
                <path d="M311.849249,209.397153 C312.002275,207.522226 314.094585,202.203497 318.14477,202.027589 C323.500683,201.794474 330.123708,202.639693 331.453748,213.809166 C332.785217,224.978639 332.563544,232.951726 337.906585,232.152272 C337.906585,232.152272 334.927582,238.382006 324.866476,233.736878 C318.42794,230.765026 310.732302,223.099421 311.849249,209.397153" id="Fill-89" fill="#58585B"></path>
                <path d="M271.672613,201.379731 C271.672613,201.379731 259.788065,222.724722 263.65233,232.159423 C267.518026,241.595554 280.209179,244.31999 294.560736,234.170214 C308.912293,224.020438 312.676448,208.087135 305.987636,199.510525 C296.999142,187.983514 278.093987,190.005747 271.672613,201.379731" id="Fill-91" fill="#CFD1D2"></path>
                <path d="M305.987922,199.510239 C296.997998,187.983228 278.094273,190.005461 271.672899,201.379445 C271.672899,201.379445 269.350335,205.551193 267.093558,211.020087 L267.093558,211.020087 C267.093558,211.020087 275.141013,206.1919 282.44336,205.182214 C282.44336,205.182214 283.710473,226.644478 294.561022,234.169928 C308.912579,224.020152 312.676734,208.088279 305.987922,199.510239" id="Fill-93" fill="#BABCBE"></path>
                <path d="M315.440213,205.575791 C315.440213,205.575791 311.710382,204.2243 310.378912,206.073484 C309.047442,207.924098 306.83929,214.405539 309.399259,217.08993 C311.959228,219.774322 315.199948,216.03448 315.554625,215.501034 C315.909302,214.967588 318.829669,208.594838 315.440213,205.575791" id="Fill-95" fill="#6DCEF5"></path>
                <path d="M286.216668,193.82482 C287.715465,192.709302 291.303712,188.264396 289.823506,185.047988 C287.865631,180.793291 284.501918,176.135292 274.668205,181.053579 C264.835923,185.971865 258.285835,190.385308 256.804199,185.838861 C256.804199,185.838861 252.815511,191.4522 260.724241,196.739466 C265.785542,200.123201 275.257427,201.978106 286.216668,193.82482" id="Fill-97" fill="#58585B"></path>
                <path d="M291.917818,185.69556 C291.917818,185.69556 293.336527,189.399649 291.513086,190.765442 C289.688214,192.129806 283.248248,194.45666 280.516661,191.946746 C277.786505,189.436833 281.464851,186.128896 281.992576,185.764207 C282.518871,185.399519 288.837275,182.36331 291.917818,185.69556" id="Fill-99" fill="#6DCEF5"></path>
                <path d="M285.857843,199.092349 C285.857843,199.092349 280.624924,217.475499 294.561737,234.171072 C294.561737,234.171072 309.561152,231.1034 312.321342,214.981317 C315.081532,198.860664 305.412286,192.653813 298.107079,193.38891 C290.803302,194.124007 285.857843,199.092349 285.857843,199.092349" id="Fill-101" fill="#58585B"></path>
                <path d="M267.793187,209.369551 C267.793187,209.369551 273.959995,202.759397 284.567419,203.234207 C295.173412,203.710447 300.364857,193.383332 300.364857,193.383332 C300.364857,193.383332 297.894988,186.176806 286.021881,186.777469 C274.147344,187.379562 268.546876,199.332757 267.793187,209.369551" id="Fill-103" fill="#58585B"></path>
                <path d="M289.891582,229.401092 C289.891582,229.401092 299.406371,226.689527 300.796477,228.728922 C302.186583,230.769746 296.128466,239.088929 289.429643,237.301242 C282.73082,235.513554 289.891582,229.401092 289.891582,229.401092" id="Fill-105" fill="#CFD1D2"></path>
                <path d="M297.180914,250.779406 C297.180914,250.779406 299.23747,247.780381 306.220893,249.356406 C313.205747,250.933862 317.148671,262.171982 317.739323,267.29907 C318.331405,272.424729 306.614184,275.777001 302.023402,274.002184 C297.43262,272.227368 293.775726,257.328063 297.180914,250.779406" id="Fill-107" fill="#6D6E70"></path>
                <path d="M326.479256,293.549763 C326.479256,293.549763 324.880348,294.436456 323.521706,293.549763 C322.163063,292.66307 322.633583,289.368004 322.716531,287.475915 C322.79948,285.582396 326.479256,285.99857 326.479256,285.99857 L326.479256,293.549763 Z" id="Fill-109" fill="#CFD1D2"></path>
                <polygon id="Fill-111" fill="#58585B" points="329.337983 318.894312 330.224677 318.894312 330.224677 98.162075 329.337983 98.162075"></polygon>
                <path d="M370.825782,41.876227 C370.825782,65.0046155 352.928883,98.3785998 330.851654,98.3785998 C308.772996,98.3785998 290.876097,65.0046155 290.876097,41.876227 C290.876097,18.7478385 308.772996,0 330.851654,0 C352.928883,0 370.825782,18.7478385 370.825782,41.876227" id="Fill-113" fill="#6DCEF5"></path>
                <path d="M327.767536,98.161503 L323.577196,105.964402 C323.577196,105.964402 328.525515,109.253748 335.057011,105.964402 L330.850939,98.3788858 L327.767536,98.161503 Z" id="Fill-114" fill="#6DCEF5"></path>
                <path d="M323.442332,95.1691998 C323.030449,95.1691998 322.615706,95.2392771 322.205253,95.3980238 C320.141546,96.200338 319.13758,97.6705324 319.211948,98.7059611 C319.256283,99.3066242 319.655295,99.7113567 320.37037,99.875824 C322.168069,100.290568 326.459949,98.8246636 328.5637,97.9894559 C327.70418,97.0913216 325.61044,95.1691998 323.442332,95.1691998 M321.105467,100.832594 C320.760801,100.832594 320.446168,100.803991 320.170149,100.741065 C319.087525,100.490789 318.398193,99.7542612 318.328115,98.7703179 C318.232295,97.4517194 319.304908,95.5739323 321.883469,94.571397 C325.689098,93.0926217 329.500449,97.6848339 329.660625,97.8807645 L330.035325,98.3398427 L329.490437,98.5700969 C329.247312,98.6730677 324.094481,100.832594 321.105467,100.832594" id="Fill-115" fill="#58585B"></path>
                <path d="M330.533875,97.9894559 C332.639056,98.8246636 336.932367,100.290568 338.728636,99.875824 C339.44228,99.7113567 339.842722,99.3066242 339.885627,98.7059611 C339.961425,97.6705324 338.95746,96.200338 336.893753,95.3980238 C334.320913,94.3969187 331.556432,96.9197036 330.533875,97.9894559 M337.993538,100.832594 C335.004524,100.832594 329.851693,98.6730677 329.608568,98.5700969 L329.062251,98.3398427 L329.43695,97.8807645 C329.598557,97.6848339 333.409907,93.0911916 337.214106,94.571397 C339.794097,95.5739323 340.86528,97.4517194 340.77089,98.7703179 C340.700813,99.7542612 340.01148,100.490789 338.928857,100.741065 C338.652838,100.803991 338.336774,100.832594 337.993538,100.832594" id="Fill-116" fill="#58585B"></path>
                <path d="M333.393603,282.321225 C332.805812,282.065228 332.167965,281.957967 331.530118,282.018033 C329.702386,282.188221 326.802041,282.394162 325.729429,284.593733 C324.319301,287.484067 326.713372,290.358669 325.659351,292.46385 C324.606761,294.570461 323.984645,299.473016 326.763427,300.077969 C329.542209,300.684353 333.882715,301.948606 335.039706,296.837249 C336.196698,291.725892 339.496054,287.89309 337.878554,285.563375 C336.764467,283.960177 334.622102,282.854671 333.393603,282.321225" id="Fill-117" fill="#CFD1D2"></path>
                <path d="M450.619866,107.351362 C450.619866,107.351362 464.445128,113.755574 462.780433,127.587987 C461.115738,141.421829 462.877683,151.777547 467.622921,158.57505 C475.450133,169.788858 480.56006,181.937983 473.241981,194.95092 C465.922473,207.963856 482.113203,235.196776 482.113203,235.196776 L417.755015,232.226354 C417.755015,232.226354 401.760216,197.784047 403.638003,178.179549 C405.51579,158.57505 415.079204,141.184424 411.666866,129.90626 C408.254528,118.629526 423.622921,107.351362 423.622921,107.351362 L450.619866,107.351362 Z" id="Fill-119" fill="#58585B"></path>
                <path d="M358.393915,422.658571 C358.393915,422.658571 359.262017,432.622427 348.125437,434.588884 C348.125437,434.588884 330.713359,439.201118 327.797283,444.096522 C325.898043,447.284327 343.576129,449.422401 360.363232,449.738724 C361.993603,449.768498 368.313437,447.179926 369.829396,447.188507 C371.209491,447.195658 372.922811,449.302269 374.167042,449.293688 C379.093909,449.255074 377.67234,449.581148 378.942313,449.293688 C384.508457,448.029435 375.987623,430.748931 375.987623,430.748931 L358.393915,422.658571 Z" id="Fill-120" fill="#58585B"></path>
                <path d="M462.914295,426.906117 C462.914295,426.906117 467.412117,435.838835 457.798648,441.79255 C457.798648,441.79255 443.335539,452.528688 442.440265,458.157759 C441.858194,461.821803 459.070051,457.255334 474.778821,451.328792 C476.304791,450.752441 481.214497,446.004342 482.626055,445.450874 C483.91033,444.947461 486.282949,446.26892 487.43422,445.798401 C491.996399,443.936345 490.797933,444.767263 491.870545,444.029305 C496.572879,440.792875 482.252786,427.901502 482.252786,427.901502 L462.914295,426.906117 Z" id="Fill-121" fill="#58585B"></path>
                <path d="M447.322369,244.124202 C447.322369,244.124202 467.674836,254.48993 466.788143,302.901944 C465.90145,351.313957 493.404667,420.217162 489.530391,424.742157 C485.657544,429.267152 469.472535,443.602977 429.132289,439.988988 C388.790613,436.374998 363.555613,437.491946 352.909576,426.978912 C342.263538,416.464448 392.654879,264.257856 392.157187,248.059975 C392.157187,248.059975 438.321004,232.512813 447.322369,244.124202" id="Fill-122" fill="#6D6E70"></path>
                <path d="M466.788,302.902087 C467.674693,254.490073 447.322226,244.124345 447.322226,244.124345 C438.320861,232.512956 392.157043,248.060118 392.157043,248.060118 C392.290047,252.400624 388.767588,266.514776 383.7449,285.048092 C383.7449,285.048092 394.868608,284.722018 399.600975,278.726828 C404.333342,272.731639 419.259819,271.169915 420.668517,268.401144 C420.668517,268.401144 436.325801,270.025795 442.780069,265.156133 C442.780069,265.156133 459.93329,270.520627 457.566391,298.83474 C455.45835,324.07689 482.009088,401.41369 488.22166,426.136696 C488.756536,425.608971 489.192732,425.137021 489.531678,424.7423 C493.404524,420.217305 465.901307,351.3141 466.788,302.902087" id="Fill-123" fill="#59595C"></path>
                <path d="M414.700358,137.497211 C414.700358,137.497211 402.558383,140.689306 399.403471,148.622349 C396.24856,156.553962 394.672535,206.966756 393.883092,212.734551 C393.883092,212.734551 380.476864,255.493181 386.587896,267.782461 L401.946278,267.823936 C401.946278,267.823936 412.751063,207.023962 412.978457,199.354066 C413.205851,191.682741 414.700358,137.497211 414.700358,137.497211" id="Fill-124" fill="#68C4E9"></path>
                <path d="M412.978457,138.858142 C412.978457,138.858142 402.931652,156.325996 395.381889,162.575752 C388.554352,168.224846 388.212546,176.579783 395.381889,190.007463 C408.394825,214.381512 391.207281,257.945316 391.207281,257.945316 C391.207281,257.945316 392.940623,265.164714 407.608243,261.948307 C407.608243,261.948307 414.555912,269.970019 428.273913,262.773503 C428.273913,262.773503 433.709914,269.50236 450.272483,261.948307 C450.272483,261.948307 461.707963,265.799701 467.621634,256.154768 C467.621634,256.154768 446.641331,224.426887 446.448261,205.302919 C446.255191,186.177521 466.403146,167.591289 456.108925,145.903062 C450.182383,133.414991 421.350556,130.639069 412.978457,138.858142" id="Fill-125" fill="#6DCEF5"></path>
                <path d="M467.622349,256.154339 C467.622349,256.154339 446.640616,224.426458 446.447546,205.30249 C446.264487,187.135292 464.433114,169.454346 457.429669,149.137632 C451.290034,162.591055 440.430904,188.175011 440.726945,207.460586 C441.121667,233.094598 462.496691,256.154339 462.496691,256.154339 C460.327153,260.873835 451.849223,261.949308 451.849223,261.949308 L453.027667,262.537099 C456.787532,263.040512 463.526399,262.83314 467.622349,256.154339" id="Fill-126" fill="#68C4E9"></path>
                <path d="M441.154274,107.484223 C441.154274,107.484223 437.217071,120.521472 438.863174,127.421946 C440.510707,134.323851 443.568368,138.857427 443.568368,138.857427 C443.568368,138.857427 436.982526,148.322161 416.517077,152.462446 C416.517077,152.462446 409.231892,145.600585 415.567458,139.844231 C422.620958,133.435728 423.649236,123.567692 424.44297,115.664682 C425.035052,109.783904 438.999038,106.650445 441.154274,107.484223" id="Fill-127" fill="#CFD1D2"></path>
                <path d="M439.718546,109.991276 C440.107547,109.047377 440.439342,108.186427 440.728232,107.389833 C437.599064,106.98081 425.005162,110.084236 424.443113,115.664682 C424.22716,117.818488 423.991185,120.118169 423.623636,122.455035 C427.134655,125.572762 432.963947,126.399389 439.718546,109.991276" id="Fill-128" fill="#BABCBE"></path>
                <path d="M450.348138,95.400455 C450.348138,95.400455 454.172359,103.553741 450.619866,107.35079 L435.300098,107.35079 C435.300098,107.35079 446.875733,94.5294936 450.348138,95.400455" id="Fill-129" fill="#6DCEF5"></path>
                <path d="M405.425119,86.2974062 C405.425119,86.2974062 405.905649,111.356497 414.20338,117.726386 C422.501112,124.096275 435.159371,119.961711 442.644777,103.553598 C450.128753,87.1469154 445.241929,71.0777482 434.883352,66.9260222 C420.9637,61.3470064 405.24635,72.8983293 405.425119,86.2974062" id="Fill-130" fill="#CFD1D2"></path>
                <path d="M406.254463,96.5461483 C406.254463,96.5461483 410.982539,87.2415914 417.36816,84.4356367 C417.36816,84.4356367 424.331561,97.7489046 436.821062,100.955301 L419.102932,75.3927972 C419.102932,75.3927972 404.256543,86.3148541 406.254463,96.5461483" id="Fill-131" fill="#BABCBE"></path>
                <path d="M416.820555,76.9469414 C416.820555,76.9469414 421.670194,95.9464864 442.644777,103.553455 C442.644777,103.553455 458.834077,92.5269973 453.53537,74.704466 C448.752948,58.6209972 433.978067,55.2687252 427.453722,59.0328805 C418.096249,64.4316973 416.820555,76.9469414 416.820555,76.9469414" id="Fill-132" fill="#58585B"></path>
                <path d="M406.110018,95.3837223 C406.110018,95.3837223 408.165143,86.3394526 417.814367,81.285302 C427.46359,76.2325814 427.453579,59.0321654 427.453579,59.0321654 C427.453579,59.0321654 417.694234,53.3187155 407.650289,63.3669505 C399.027914,71.9936163 401.596464,86.0963271 406.110018,95.3837223" id="Fill-133" fill="#58585B"></path>
                <path d="M436.042488,101.735734 C436.042488,101.735734 443.077397,94.4205162 445.364207,95.5117207 C447.649587,96.6014952 446.572684,107.104518 439.710824,108.978015 C432.848963,110.851511 436.042488,101.735734 436.042488,101.735734" id="Fill-134" fill="#CFD1D2"></path>
                <path d="M421.649028,303.163089 C421.639017,303.094442 420.630761,296.020919 416.776507,289.096132 C411.780992,280.12623 404.52727,275.578353 395.214132,275.578353 C372.62348,275.578353 366.190665,302.279256 366.129169,302.549555 L362.094715,301.617097 C362.166222,301.311045 363.885263,294.02586 368.747774,286.656296 C375.316453,276.69959 384.467984,271.438068 395.214132,271.438068 C406.028928,271.438068 414.758565,276.88694 420.456283,287.194032 C424.653774,294.79099 425.709224,302.290698 425.750699,302.606761 L421.649028,303.163089 Z" id="Fill-135" fill="#6DCEF5"></path>
                <polygon id="Fill-136" fill="#6DCEF5" points="428.273484 354.949113 362.33784 354.949113 354.243191 304.155899 436.185074 304.155899"></polygon>
                <path d="M436.185074,304.156185 L425.962361,304.156185 L425.903725,304.539466 L354.303257,304.539466 L355.209972,310.222882 L404.836183,310.222882 C415.440746,310.222882 423.543977,319.686186 421.912176,330.164896 L418.05077,354.949399 L428.273484,354.949399 L436.185074,304.156185 Z" id="Fill-137" fill="#68C4E9"></path>
                <polygon id="Fill-138" fill="#6DCEF5" points="346.908808 305.726919 443.518312 305.726919 443.518312 300.043503 346.908808 300.043503"></polygon>
                <path d="M388.141468,261.171735 C388.141468,261.171735 383.434844,271.989391 385.183917,278.449379 C386.932991,284.910798 391.774049,286.521147 394.92753,287.414991 C395.519613,287.582318 396.286173,287.533693 397.141403,287.346343 C402.485874,286.1679 406.046948,281.082286 405.59502,275.627693 L405.564987,275.264435 C405.564987,275.264435 403.037912,272.385542 401.742196,263.784619 L388.141468,261.171735 Z" id="Fill-139" fill="#CFD1D2"></path>
                <path d="M448.311747,138.484015 C439.324683,135.10171 437.934577,153.271768 429.415173,177.421283 C420.894338,201.572229 387.179978,243.278268 386.587896,262.702568 L402.558383,265.77167 C402.558383,265.77167 426.517688,236.206176 432.175362,214.812559 C436.398596,198.846363 482.409387,151.315322 448.311747,138.484015" id="Fill-140" fill="#6DCEF5"></path>
                <path d="M429.414887,177.421569 C420.894052,201.571085 387.179692,243.277124 386.58761,262.702854 C387.179692,243.277124 422.643126,203.586167 431.16253,179.436651 C439.683365,155.287135 437.935721,153.272054 429.414887,177.421569" id="Fill-141" fill="#7ED2F6"></path>
                <path d="M454.370006,141.705857 C470.815303,159.105064 433.694325,198.561477 429.921589,212.825795 C424.262485,234.219411 400.303179,263.784905 400.303179,263.784905 L386.702451,261.172021 C386.645245,261.695456 386.60377,262.20745 386.588039,262.702282 L402.558526,265.771384 C402.558526,265.771384 426.516401,236.20589 432.175505,214.812273 C436.099837,199.974465 476.102568,157.879425 454.370006,141.705857" id="Fill-142" fill="#68C4E9"></path>
                <path d="M228.29816,439.574244 C228.491231,440.48954 228.954599,442.802093 229.450861,446.158656 C228.96318,442.846428 228.506962,440.538166 228.303881,439.571384 L228.29816,439.574244 Z" id="Fill-143" fill="#E5E6E7"></path>
                <path d="M234.236287,425.819632 C234.236287,425.819632 216.478112,425.191796 213.5034,431.41724 C210.528688,437.642683 243.675278,439.571956 243.675278,439.571956 C248.913918,434.84388 245.50444,426.142846 245.50444,426.142846 C245.50444,426.142846 241.868998,426.016993 234.236287,425.819632" id="Fill-144" fill="#58585B"></path>
                <path d="M231.541598,240.753624 L229.885484,234.069102 C229.885484,234.069102 229.283391,228.823311 228.953026,224.093805 C225.699434,221.359358 221.785113,220.243841 221.024274,220.04791 C220.110408,220.857375 219.226575,221.990054 218.450003,223.540337 C217.107092,226.214718 216.595098,230.199116 219.552649,235.459208 C220.256283,236.71059 220.733953,238.987389 221.157278,241.756159 C223.408334,243.063317 226.201417,243.246376 228.648404,242.103686 L231.541598,240.753624 Z" id="Fill-145" fill="#BABCBE"></path>
                <path d="M215.672366,210.277267 L220.882403,217.389404 C220.882403,217.389404 229.52051,219.383033 232.510954,226.027511 C235.501398,232.671989 236.830007,235.662433 236.830007,235.662433 L228.648118,239.480933 C225.461743,240.96829 221.680426,240.228902 219.289215,237.653202 L211.579276,229.34975 L211.579276,234.998843 C211.579276,234.998843 215.233309,238.986102 214.236495,241.975115 C214.236495,241.975115 208.588832,238.321082 207.592017,236.659247 C206.595202,234.998843 207.592017,223.037067 207.592017,223.037067 L202.276149,215.228447 L215.672366,210.277267 Z" id="Fill-146" fill="#CFD1D2"></path>
                <path d="M231.827485,224.746954 C228.387974,219.126464 220.882546,217.388832 220.882546,217.388832 L220.848222,217.341637 C220.514997,217.905116 220.26186,218.583007 220.171761,219.418215 C219.87858,222.114048 220.044478,225.18315 220.905428,224.904271 C221.514672,224.70548 222.428538,223.784463 223.275187,222.221309 C223.519743,224.70548 224.15759,227.156757 224.886966,226.769187 C225.0214,226.697679 225.168706,226.567536 225.320302,226.411649 C225.340324,227.098121 225.49478,227.525736 225.839446,227.478541 C225.955288,227.461379 226.086862,227.421335 226.229877,227.361269 C226.271351,227.492843 226.342859,227.591523 226.477293,227.614406 C227.368277,227.770292 229.466307,226.957967 231.763128,224.809881 C231.786011,224.788429 231.804602,224.768407 231.827485,224.746954" id="Fill-147" fill="#BABCBE"></path>
                <path d="M233.820542,218.730027 C233.247052,218.501203 232.46333,218.432555 231.638133,218.629916 C231.884119,217.538712 231.61382,216.880842 230.65705,216.816486 C229.870467,216.76357 228.837899,217.056751 227.964077,217.824742 C228.072769,215.836833 227.622271,214.791393 226.393772,215.1475 C226.056257,215.246181 225.695859,215.42781 225.349763,215.683807 C225.534252,214.277969 225.185295,213.501398 224.111253,213.61724 C222.779783,213.761685 220.900566,214.974452 220.608815,217.670285 C220.315634,220.364688 220.481532,223.435221 221.342482,223.154911 C221.951726,222.957551 222.865592,222.036534 223.712241,220.47195 C223.956796,222.957551 224.594643,225.408828 225.32402,225.021257 C225.458454,224.94975 225.60576,224.819606 225.757356,224.66229 C225.777378,225.350192 225.931834,225.777807 226.2765,225.729182 C226.392342,225.71345 226.523916,225.673406 226.666931,225.613339 C226.708405,225.744913 226.779913,225.843594 226.914347,225.866476 C227.805331,226.022362 229.903361,225.210037 232.200182,223.061952 C234.497003,220.913866 235.32077,219.327829 233.820542,218.730027" id="Fill-148" fill="#CFD1D2"></path>
                <path d="M188.65354,215.494598 C188.65354,215.494598 221.687148,198.216954 223.6107,199.213768 C225.532822,200.210583 228.856491,207.334161 228.856491,207.334161 C228.856491,207.334161 195.963037,226.458129 193.304388,226.126334 C190.647169,225.794539 188.65354,215.494598 188.65354,215.494598" id="Fill-149" fill="#68C4E9"></path>
                <path d="M323.889826,56.0741858 C310.083157,51.2817526 314.995723,35.5071963 315.047208,35.3484496 C315.078671,35.2511994 315.037197,35.1453683 314.948528,35.095313 C314.859858,35.0452578 314.746876,35.0652799 314.68109,35.142508 C309.626939,40.9946824 307.860703,45.8328805 309.435299,49.5255282 C310.546525,52.1326919 313.391094,54.1649353 317.661522,55.4005851 C320.863629,56.3273224 323.779705,56.4889293 323.808308,56.4903595 C323.812598,56.4903595 323.815459,56.4903595 323.819749,56.4903595 C323.92129,56.4903595 324.009959,56.418852 324.029981,56.3173113 C324.050003,56.2129104 323.989937,56.1099395 323.889826,56.0741858" id="Fill-150" fill="#ACDFF8"></path>
                <path d="M335.937411,25.9110317 C336.026081,25.9639472 336.143353,25.9439251 336.212,25.8638367 C336.279217,25.7823181 336.277787,25.6650458 336.20771,25.5849574 C336.137632,25.504869 329.092713,17.5732562 321.412806,19.2164987 C315.692206,20.4407073 311.115725,26.533147 307.810648,37.3250601 C307.779185,37.4251706 307.82638,37.5338621 307.92077,37.5796269 C307.950803,37.5953585 307.983696,37.6025093 308.01516,37.6025093 C308.082377,37.6025093 308.148164,37.5696158 308.189638,37.5124098 C308.329793,37.3150491 322.373867,17.8678671 335.937411,25.9110317" id="Fill-151" fill="#ACDFF8"></path>
                <path d="M330.905285,18.1789248 C341.126568,19.2129234 342.76266,37.7490997 342.778392,37.9364493 C342.786973,38.0394201 342.865631,38.1209387 342.967172,38.1323799 C342.975752,38.1338101 342.982903,38.1338101 342.991484,38.1338101 C343.083014,38.1338101 343.165962,38.0751739 343.195996,37.9850744 C345.703049,30.2308002 345.477085,24.5631151 342.525255,21.1393356 C338.560879,16.5399727 330.968212,17.7412988 330.892414,17.7541702 C330.786583,17.771332 330.709354,17.8657219 330.712138,17.9729832 C330.716505,18.0802444 330.798024,18.1674836 330.905285,18.1789248" id="Fill-152" fill="#ACDFF8"></path>
                <path d="M347.269349,35.6419164 C347.260768,35.5275044 347.159228,35.4331145 347.046246,35.4445557 C346.931834,35.4502763 346.840304,35.5446662 346.841734,35.6605084 C346.841734,35.704843 346.847455,40.1640512 344.556354,44.7848664 C342.445453,49.0424235 337.891855,54.3053761 328.182565,55.1992199 C328.092466,55.2078008 328.016668,55.2707274 327.993785,55.3593967 C327.972333,55.4466359 328.006657,55.5395957 328.081025,55.5896509 C328.101047,55.6039524 330.093246,56.942573 332.750465,57.8564389 C334.412299,58.428499 335.981174,58.714529 337.422765,58.714529 C339.053137,58.714529 340.51904,58.3484106 341.770422,57.6204641 C346.369785,54.9403627 348.220399,47.5450562 347.269349,35.6419164" id="Fill-153" fill="#ACDFF8"></path>
                <path d="M342.034714,40.9916791 C342.066177,40.8872782 342.013261,40.7757265 341.913151,40.7328219 C341.81161,40.6899174 341.695768,40.7299616 341.642852,40.8243516 C341.594227,40.9101606 336.778912,49.2736787 331.317168,49.2736787 C331.279984,49.2736787 331.24137,49.2722486 331.202756,49.2722486 C328.499772,49.2150426 326.055646,47.0926997 323.939024,42.9681467 C323.9047,42.9023597 323.840343,42.8580251 323.765975,42.8523045 C323.693038,42.8465839 323.6201,42.8780472 323.575765,42.9366834 C323.449912,43.1054411 320.485211,47.0984203 321.329,50.018787 C321.640772,51.0999805 322.435936,51.8908535 323.690177,52.3685237 C324.821426,52.800429 326.09855,53.0120913 327.42859,53.0120913 C329.475135,53.0120913 331.650393,52.5115387 333.62257,51.5361763 C336.444257,50.14321 340.19411,47.1827992 342.034714,40.9916791" id="Fill-154" fill="#ACDFF8"></path>
                <path d="M329.591406,46.0822986 C330.751258,46.6700904 333.213976,46.2296041 335.447871,45.0339986 C337.72038,43.8169408 339.137658,42.162257 339.335019,40.4918416 C339.592446,38.3180134 339.397946,35.7423129 338.814445,33.599948 C338.2953,31.6964181 337.214106,29.2036664 335.007385,28.1367744 C331.659403,26.5164142 323.385985,23.6418124 318.915335,31.9195215 C314.613443,39.8825977 319.086953,49.2257687 319.132718,49.3201586 C319.169902,49.3945264 319.2457,49.4402912 319.325788,49.4402912 C319.34724,49.4402912 319.370123,49.4360008 319.393005,49.42885 C319.494546,49.3959566 319.556042,49.2929858 319.53602,49.1871547 C319.513138,49.0613014 317.319288,36.5932523 322.041643,31.8351427 C323.617669,30.247676 325.81724,29.685627 328.565988,30.161867 C328.620334,30.1747383 334.079217,31.5147891 335.003094,34.4222843 C335.377794,35.5992979 334.950179,36.9007346 333.733121,38.2908405 C332.822115,39.3305597 332.031242,40.2029513 331.361932,40.9423389 C329.258181,43.2677631 328.38722,44.2302542 328.535955,45.0368589 C328.627485,45.533121 329.120887,45.8434636 329.591406,46.0822986" id="Fill-155" fill="#ACDFF8"></path>
                <path d="M328.98631,32.8740038 C328.055282,32.5836833 327.207203,32.6880842 326.469245,33.1843464 C324.155262,34.7403497 323.711916,39.6228824 323.694754,39.8302542 C323.687603,39.9103426 323.726217,39.9890008 323.796295,40.0304752 C323.830618,40.0519275 323.869232,40.0619385 323.907846,40.0619385 C323.94646,40.0619385 323.986505,40.0519275 324.020828,40.0304752 L327.782123,37.6850289 C328.103907,37.5062602 330.927023,35.9002015 330.772567,34.3871026 C330.70678,33.7320939 330.106117,33.2229604 328.98631,32.8740038" id="Fill-156" fill="#ACDFF8"></path>
                <path d="M267.667191,226.130768 C267.667191,226.130768 273.054567,230.223858 277.37362,229.401521 C277.37362,229.401521 274.822232,231.571059 270.434532,229.274238 C267.492713,227.735396 267.667191,226.130768 267.667191,226.130768" id="Fill-157" fill="#FEFEFE"></path>
            </g>
        </g>
    </g>
</svg>