<?xml version="1.0" encoding="UTF-8"?>
<svg width="810px" height="480px" viewBox="0 0 810 480" version="1.1" xmlns="http://www.w3.org/2000/svg" xmlns:xlink="http://www.w3.org/1999/xlink">
    <title>golf</title>
    <defs>
        <polygon id="path-1" points="0 0 54 0 54 116 0 116"></polygon>
        <polygon id="path-3" points="0 0 49 0 49 90 0 90"></polygon>
        <polyline id="path-5" points="1 116 98 116 98 0 1 0"></polyline>
    </defs>
    <g id="golf" stroke="none" stroke-width="1" fill="none" fill-rule="evenodd">
        <g>
            <g id="Group" transform="translate(30.000000, 27.000000)">
                <path d="M101.026266,40.7426422 C103.942218,51.5306267 113.126823,56.2359196 122.813519,60.9231094 L123.977964,61.4858734 C133.306895,65.9935004 142.885975,70.7080084 147.613321,80.994957 C157.461957,102.425066 159.091171,119.563153 151.7158,137.295026 C144.341462,155.0269 162.68846,162.348888 169.239409,181.696606 C175.791392,201.044323 163.287663,226.074392 144.459236,226.957831 C129.689653,227.650826 123.535766,219.576096 105.425139,219.363075 C102.375619,115.526233 75.8335723,22.8990458 75.8335723,22.8990458 C92.8081895,105.680769 96.0640057,171.216333 93.7986658,220.195952 C91.774108,220.477299 89.6323198,220.848827 87.3582225,221.313755 C53.9123245,228.150576 14.3338865,225.483709 15.0085072,195.70852 C15.6831279,165.933331 47.44609,160.209601 44.5595811,145.475626 C41.6741053,130.742684 24.3385222,128.179264 24.3168269,105.737443 C24.2951316,83.2956213 63.9551853,67.4082103 56.8174294,52.6225112 C49.6796735,37.8378466 45.3685061,13.1708772 61.7432971,2.44651263 C78.3319418,-8.41854001 95.1943606,19.1666731 101.026266,40.7426422 Z" id="Combined-Shape" fill="#E5E6E7"></path>
                <path d="M76,23 C76,23 129.390919,190.603484 107.901241,328.825882 L84.7279656,331 C84.7279656,331 125.200158,230.50366 76,23" id="Fill-3" fill="#E5E6E7"></path>
                <path d="M0,340 L171,340 C171,340 93.7308448,299.5 0,340" id="Fill-7" fill="#E6E7E8"></path>
            </g>
            <g transform="translate(163.726649, 0.000000)">
                <path d="M247.263494,432.905614 C247.263494,439.89881 198.806605,445.567832 139.031953,445.567832 C79.2573008,445.567832 30.8004118,439.89881 30.8004118,432.905614 C30.8004118,425.912419 79.2573008,420.243396 139.031953,420.243396 C198.806605,420.243396 247.263494,425.912419 247.263494,432.905614" id="Fill-1" fill="#EEEEEE"></path>
                <path d="M331.740669,474.65515 C331.740669,477.054307 325.586309,479 317.996222,479 C310.404686,479 304.250327,477.054307 304.250327,474.65515 C304.250327,472.255993 310.404686,470.310299 317.996222,470.310299 C325.586309,470.310299 331.740669,472.255993 331.740669,474.65515" id="Fill-3" fill="#59595C"></path>
                <path d="M325.826038,410.955934 C325.826038,414.574953 307.000767,417.510154 283.778491,417.510154 C260.556215,417.510154 241.730945,414.574953 241.730945,410.955934 C241.730945,407.335467 260.556215,404.401715 283.778491,404.401715 C307.000767,404.401715 325.826038,407.335467 325.826038,410.955934" id="Fill-5" fill="#EEEEEE"></path>
                <path d="M143.227725,218.796054 L134.159896,231.545198 L133.959966,240.923062 C133.959966,240.923062 127.734617,259.867132 127.996844,262.227172 L73.1914608,413.01043 L70.2606065,426.121766 L54.1821972,426.121766 C52.5871054,426.121766 51.2948058,427.414065 51.2948058,429.009157 C51.2948058,430.6028 52.0916273,430.831705 54.1821972,431.8951 C58.6371538,434.16097 78.5634866,431.8951 78.5634866,431.8951 C80.1585783,431.8951 81.450878,430.6028 81.450878,429.009157 C81.450878,427.414065 80.1585783,426.121766 78.5634866,426.121766 L76.0310429,426.121766 L74.9604046,421.181472 L76.6004081,413.927499 L78.8286108,409.077029 L132.586536,264.324986 C132.586536,264.324986 134.646682,262.751625 135.585482,260.129358 C136.519937,257.507091 146.867026,226.626636 146.867026,226.626636 L143.227725,218.796054 Z" id="Fill-7" fill="#6D6E70"></path>
                <path d="M146.867751,226.626056 C146.867751,226.626056 136.519212,257.506512 135.586207,260.128779 C134.647406,262.751046 132.585812,264.324406 132.585812,264.324406 C132.245351,263.711578 131.028388,263.171188 129.93312,262.798855 C128.914638,262.44101 127.997568,262.226592 127.997568,262.226592 C127.735342,259.866552 133.960691,240.922483 133.960691,240.922483 L134.159172,231.546067 L137.662289,226.615915 L143.228449,218.795474 L146.867751,226.626056 Z" id="Fill-9" fill="#6DCEF5"></path>
                <path d="M78.7852927,15.2042469 C78.7852927,15.2042469 107.282527,28.8400361 103.960506,46.4976007 C100.638485,64.1551652 87.1765475,73.2447255 89.8002635,90.7269893 C91.7271227,103.577547 83.855975,150.69143 59.3805159,141.775721 C34.9065055,132.858564 18.8223012,149.467222 7.80877917,152.438642 C-3.20619158,155.410062 -3.38004355,129.362691 12.52886,115.202448 C28.4363148,101.040757 43.646913,85.8316078 47.1427863,74.8180858 C50.6401083,63.8045638 39.8004383,56.2869151 43.1224596,50.86708 C46.4430321,45.4486938 55.3601892,29.0153368 55.3601892,29.0153368 L67.0720165,17.8265141 L78.7852927,15.2042469 Z" id="Fill-11" fill="#59595C"></path>
                <path d="M226.33418,221.491483 C224.236366,229.01203 209.902272,274.81333 213.222844,286.351305 C223.921984,323.51506 224.063963,352.958339 221.9647,369.216396 C219.866887,385.475901 224.236366,404.74884 224.236366,404.74884 L220.915794,406.101988 C217.312712,408.467823 210.023968,405.809337 204.637455,403.223289 C200.872111,401.407985 198.033977,399.636143 198.033977,399.636143 C198.033977,399.636143 197.489241,397.53833 198.013695,391.244888 C198.291858,387.91997 195.349413,364.700591 192.51128,343.528319 C192.51128,343.528319 192.51128,343.508036 192.506934,343.466022 C191.03209,332.488719 189.590567,322.067743 188.641625,315.265785 L188.641625,315.249848 C188.379398,313.398325 188.159186,311.809028 187.980988,310.555845 C188.451837,315.07165 188.505441,321.086928 188.289575,327.820794 C188.153391,332.106245 187.953461,336.68 187.718761,341.342131 C186.464129,366.069675 184.11423,393.342702 184.11423,393.342702 C183.129069,393.935248 180.286589,397.312322 179.310121,397.668719 C169.901832,401.11968 161.458422,395.718679 162.873866,393.342702 C164.437085,390.720435 155.007065,296.31592 154.089996,291.071386 C153.171478,285.826852 152.909251,276.911144 154.089996,267.470982 C154.902754,260.983406 158.741985,210.566336 161.060011,179.659803 C162.119059,165.583589 162.863725,155.556677 162.863725,155.556677 L190.471417,138.720563 L215.845111,123.243392 C215.845111,123.243392 231.930764,132.332952 239.619368,151.737729 C247.312317,171.142506 228.431994,213.975283 226.33418,221.491483" id="Fill-13" fill="#6D6E70"></path>
                <path d="M204.63702,403.223289 C200.871676,401.407985 198.033543,399.636143 198.033543,399.636143 C198.033543,399.636143 197.488807,397.53833 198.01326,391.244888 C198.291423,387.91997 195.348979,364.70204 192.510845,343.528319 C192.510845,343.528319 192.510845,343.508036 192.506499,343.466022 C191.033104,332.488719 189.590132,322.067743 188.64119,315.265785 L188.64119,315.249848 C188.378964,313.398325 188.158751,311.809028 187.980553,310.555845 C188.451402,315.07165 188.505006,321.086928 188.28914,327.820794 C188.152956,332.106245 187.954475,336.68 187.718326,341.342131 L187.492319,327.522348 L181.098913,283.781194 C181.098913,283.781194 198.537714,329.473836 201.159981,348.690274 C203.147688,363.26921 204.232814,390.792873 204.63702,403.223289" id="Fill-15" fill="#59595C"></path>
                <path d="M187.980263,310.55599 C188.452561,315.071795 188.504717,321.087073 188.290299,327.820939 C187.434078,354.810008 183.983117,396.489568 183.983117,396.489568 C182.997956,397.082113 182.017141,397.542821 181.040672,397.900666 C181.156574,396.415681 179.635369,391.501465 179.919327,389.409446 C181.754914,375.772208 176.248153,304.182867 172.036589,284.77809 C167.81923,265.373313 171.265846,247.017443 172.036589,229.186027 C172.801538,211.353161 177.559287,185.827346 177.559287,185.827346 L184.203329,193.521745 C184.203329,193.521745 171.962702,262.751046 180.353957,281.98342 C183.500678,289.19393 185.998351,299.652574 187.886093,309.905494 C187.89044,309.927225 187.896235,309.941713 187.896235,309.963445 C187.912171,310.047473 187.928108,310.135848 187.944044,310.219876 C188.152666,311.358607 188.352596,312.491542 188.546731,313.618682 L188.546731,313.628824 L188.640901,315.249993 C188.378674,313.39847 188.158461,311.809173 187.980263,310.55599" id="Fill-17" fill="#59595C"></path>
                <path d="M183.962834,194.938059 C183.962834,194.938059 172.036589,229.185447 173.704119,210.839718 C174.910942,197.592199 166.063325,185.408073 161.059286,179.660817 C162.118335,165.584603 162.864449,155.556242 162.864449,155.556242 L190.472141,138.720128 C190.954581,139.166348 191.368928,139.727021 191.715183,140.415185 C197.740602,152.34143 183.962834,194.938059 183.962834,194.938059" id="Fill-19" fill="#59595C"></path>
                <path d="M33.8555703,42.8077376 C33.8555703,42.8077376 26.8638238,17.4775063 36.8284389,10.1351583 C46.7930541,2.7913615 39.624558,2.61750954 49.9397746,0.519695823 C60.2549912,-1.57811789 75.2888399,2.61750954 74.5890858,14.155485 C73.8907804,25.6934604 74.6137148,15.0290911 74.6137148,15.0290911 L55.010457,29.8890878 L33.8555703,42.8077376 Z" id="Fill-21" fill="#58585B"></path>
                <path d="M103.085306,57.9480706 C103.76188,64.0372357 103.741597,69.7062585 103.56195,73.7657019 C103.431561,76.7443655 103.211349,78.8581157 103.121525,79.6404495 C103.101243,79.860662 103.085306,79.9751146 103.085306,79.9751146 C103.085306,79.9751146 103.053433,79.9128176 102.991136,79.7867749 C102.550711,78.8697058 100.631096,74.7305803 99.9385857,70.7971796 C99.1519055,66.3393254 88.9250637,60.0458843 88.9250637,60.0458843 L83.4183027,48.7701356 L82.5736719,30.4606261 L82.2795723,24.1208245 C90.0623453,34.8721197 108.723905,35.3965732 109.510585,38.0188403 C110.297265,40.6411075 101.774173,46.1478684 103.085306,57.9480706" id="Fill-23" fill="#CFD1D2"></path>
                <path d="M103.12225,79.63987 C103.080236,79.6876793 103.038221,79.7340398 102.990412,79.7861954 C102.549987,78.8691263 100.630372,74.7314495 99.9378613,70.7980488 C99.1511811,66.3401947 88.9243393,60.0453048 88.9243393,60.0453048 L83.4175783,48.7695561 L82.5729475,30.4614954 C84.1680393,29.1503618 85.3632715,28.1854834 85.3632715,28.1854834 C85.3632715,28.1854834 95.4800072,37.7560341 95.3496182,45.2302198 C95.2279218,52.2205176 100.205883,69.4333109 103.562675,73.7665711 C103.793029,74.065017 104.013241,74.3011659 104.229107,74.4692228 C105.844482,75.7484835 104.743419,77.8361559 103.12225,79.63987" id="Fill-25" fill="#BABCBE"></path>
                <path d="M90.7603609,62.143698 C90.4083107,63.1346542 89.8577795,63.8952566 89.1507815,64.4617242 L89.1449864,64.4617242 C88.8306041,64.7196046 88.4785539,64.934022 88.1018746,65.1064252 C88.0960796,65.1122203 88.0960796,65.1122203 88.0902845,65.1180154 C87.4818026,65.4063199 86.8052287,65.6004546 86.0721529,65.7264973 C79.9873342,66.7275948 70.1545568,62.5261723 66.1110498,62.143698 C60.6042888,61.6192446 59.555382,57.9480706 55.6219812,56.636937 C51.6871318,55.3258034 45.9181441,49.294589 45.9181441,49.294589 L46.9887824,46.3840174 L48.8026379,41.443724 L61.1287422,24.1208245 L74.2400779,17.0392544 C74.2400779,17.0392544 80.7957458,16.5365325 83.4180129,19.9237483 C86.0402801,23.3124128 85.2535999,30.938719 85.2535999,30.938719 C85.2535999,30.938719 87.8758671,34.0854396 89.9736808,38.8098668 C92.0714945,43.5299476 93.6448548,54.0146699 90.7603609,62.143698" id="Fill-27" fill="#CFD1D2"></path>
                <path d="M65.2364295,59.084338 C66.7228639,59.475505 80.3021511,65.9413493 86.0711388,65.7254831 C79.9877688,66.7280294 70.1549914,62.526607 66.1100357,62.1441326 C60.6032747,61.6196792 59.5543678,57.9485052 55.6209671,56.6373716 C51.6875664,55.3262381 45.9185787,49.2950236 45.9185787,49.2950236 L46.989217,46.384452 L56.7915703,45.8121893 C56.7915703,45.8121893 53.6955566,51.0697625 57.0204754,53.9861292 C60.3395992,56.8967008 61.9144082,58.2107319 65.2364295,59.084338" id="Fill-29" fill="#BABCBE"></path>
                <path d="M89.1449864,64.4618691 C88.8306041,64.7183007 88.4785539,64.9341669 88.1004259,65.1065701 C88.6408157,64.6617988 88.9769295,64.4676641 89.1449864,64.4618691" id="Fill-31" fill="#BABCBE"></path>
                <path d="M82.2798621,16.2531538 C76.5108744,16.9514592 68.9946744,23.0710484 68.9946744,23.0710484 C68.9946744,23.0710484 67.5951661,29.3644895 66.2000041,36.1823841 C64.8729341,42.6496772 51.4356259,48.6432237 47.2197158,51.3350316 C47.2197158,51.3350316 47.2037793,51.3393779 47.1834966,51.3553143 C46.9937082,51.4755619 46.8256513,51.5914632 46.6793259,51.6957744 C46.6749796,51.7015695 46.6691846,51.7015695 46.6691846,51.7073645 C46.6474531,51.7175059 46.6329654,51.7334423 46.617029,51.7435837 C46.5011277,51.8276121 46.4011628,51.927577 46.3171343,52.0376833 C43.9208747,54.9801278 50.1244924,66.7006478 44.2033842,67.4453137 C43.9310161,67.4829816 43.6267752,67.493123 43.2964564,67.4771865 C41.4768059,67.3931581 40.359807,66.4702939 39.7194522,65.1070048 L39.7136572,65.1070048 C37.6477163,60.7071013 40.5017861,51.7435837 40.5017861,51.7435837 C40.5017861,51.7435837 33.3318413,42.6496772 33.3318413,41.7789686 C33.3318413,41.0922533 33.389792,40.4156794 33.5042445,39.7434518 C35.3456266,28.4416253 51.9600794,20.0764483 53.6131218,19.7519246 C55.3588853,19.3998744 71.2663401,10.1321159 75.1157123,10.1321159 C78.9592895,10.1321159 82.2798621,16.2531538 82.2798621,16.2531538" id="Fill-33" fill="#6DCEF5"></path>
                <path d="M157.36725,429.923763 C157.36725,429.923763 154.482756,431.628961 156.777602,433.202322 C159.072448,434.775682 184.508439,436.479431 197.376382,434.316423 C206.441314,432.792321 212.894119,428.940051 213.943026,430.580055 C214.993382,432.218609 220.957953,433.726775 230.070693,431.628961 C230.070693,431.628961 231.054406,426.711848 229.086981,424.547391 C227.121005,422.384383 205.551771,424.547391 205.551771,424.547391 L169.364485,429.521006 L157.36725,429.923763 Z" id="Fill-35" fill="#FEFEFE"></path>
                <path d="M116.459014,418.254385 C116.459014,418.254385 114.710353,419.853823 115.497033,420.801316 C116.283713,421.750258 123.62751,423.323618 133.067671,423.149766 C142.507833,422.974466 165.05933,419.214917 167.070218,419.652444 C169.081106,420.089972 168.992731,422.332662 170.566091,422.303687 C172.139452,422.274712 188.077331,420.439125 188.077331,420.439125 L186.999448,413.445929 L157.36783,413.009851 L123.276908,416.767951 L116.459014,418.254385 Z" id="Fill-37" fill="#FEFEFE"></path>
                <path d="M229.08756,424.547971 C229.08756,424.547971 227.530137,424.952177 225.102004,425.5708 L223.360587,426.006879 L222.395708,426.253169 L220.942596,426.613912 L219.038917,427.092005 C218.498527,427.222394 217.947996,427.360026 217.391669,427.49621 L217.125096,427.564302 L215.912479,427.856953 L214.681028,428.156848 C208.932323,429.546215 202.948917,430.905158 199.848557,431.365865 C192.768436,432.414772 161.956073,431.890319 157.36783,429.924343 C157.36783,429.924343 157.892283,422.842773 165.36502,421.925704 C166.88043,421.737364 168.433507,421.417187 169.98079,420.991249 C173.830162,419.932201 177.663598,418.228452 180.936361,416.345056 C182.829899,415.25993 184.533648,414.116853 185.950542,413.009995 C190.80246,409.206984 193.895576,400.297071 198.575092,399.966752 C203.257505,399.636433 215.912479,408.594156 223.448962,403.437996 C225.232393,402.216686 226.276954,405.169272 226.679711,407.519171 L226.679711,407.533659 C226.837626,408.457972 226.895577,409.286666 226.857909,409.731437 C226.805753,410.35006 227.424377,411.314939 228.080668,412.831797 L228.080668,412.836144 C229.097702,415.175901 230.200213,418.825344 229.08756,424.547971" id="Fill-39" fill="#6DCEF5"></path>
                <path d="M217.392104,427.495486 L217.124082,427.563578 L215.912914,427.857678 L214.680013,428.156124 L214.239588,428.261883 C211.675272,420.441443 197.136901,417.991579 188.311017,420.991974 C179.483683,423.992369 169.979776,420.991974 169.979776,420.991974 C173.830597,419.932926 177.664032,418.227728 180.936796,416.34578 C181.345348,419.418614 194.604458,415.369312 203.692569,416.59207 C212.787924,417.819175 217.392104,427.495486 217.392104,427.495486" id="Fill-41" fill="#FEFEFE"></path>
                <path d="M221.876181,417.305443 C220.73745,420.788277 225.101135,425.570655 225.101135,425.570655 L223.361166,426.006734 L222.394839,426.253024 L220.943175,426.615216 L219.039496,427.09186 C219.039496,427.09186 216.720021,420.153718 218.72946,415.926217 C220.733104,411.708858 226.744036,410.339774 226.68029,407.533514 C226.838206,408.457827 226.896156,409.286521 226.858488,409.731292 C226.806333,410.351364 227.424956,411.316243 228.081247,412.831652 L228.081247,412.835999 C228.081247,412.835999 223.014911,413.822609 221.876181,417.305443" id="Fill-43" fill="#FEFEFE"></path>
                <path d="M186.737222,415.925638 C186.737222,415.925638 184.27287,416.029949 180.868269,416.203801 C179.531058,416.277688 178.041726,416.350126 176.504585,416.43995 C175.728046,416.481964 174.93702,416.523978 174.144544,416.570339 L172.649417,416.664509 C172.335035,416.680445 172.020653,416.702177 171.706271,416.722459 C171.233973,416.748537 170.76747,416.78041 170.311108,416.812283 L169.854747,416.844156 C167.578735,416.994827 165.491063,417.158538 163.923498,417.315005 C157.235992,417.991579 138.486058,421.270137 132.586681,420.745684 C126.685855,420.22123 116.459014,418.253805 116.459014,418.253805 C116.459014,418.253805 116.590851,412.354429 124.063588,411.567749 C128.291089,411.121528 133.153148,410.59128 137.096691,409.553963 C140.117368,408.755693 142.609247,407.654631 143.86243,406.060988 C143.988472,405.903072 144.129003,405.730669 144.286918,405.546675 C147.827703,401.440872 159.685856,391.114065 162.742753,392.293361 C162.742753,392.293361 169.036194,397.931959 174.805182,397.275668 C180.57417,396.620826 184.114955,393.342268 184.114955,393.342268 C184.114955,393.342268 186.170754,397.653796 186.643052,399.415496 L186.647398,399.421291 C186.705349,399.64585 186.737222,399.829843 186.737222,399.955886 C186.737222,400.360092 187.131286,401.875501 187.492029,403.889287 C188.126589,407.45615 188.666978,412.594924 186.737222,415.925638" id="Fill-45" fill="#6DCEF5"></path>
                <path d="M174.144979,416.570918 L172.649852,416.665088 L171.706705,416.723039 L170.311543,416.811414 L169.855182,416.843286 L169.429244,416.869364 C168.296309,414.347062 158.153496,413.009851 148.713334,413.534304 C139.273172,414.058757 137.097125,409.553094 137.097125,409.553094 C140.117803,408.756273 142.609681,407.65521 143.862864,406.060118 C143.988907,405.903652 144.129437,405.7298 144.287353,405.545806 C144.145374,407.523372 148.278704,409.689278 157.891269,409.164825 C167.505283,408.640371 174.144979,416.570918 174.144979,416.570918" id="Fill-47" fill="#FEFEFE"></path>
                <path d="M187.492608,403.889577 L187.434658,403.921449 C187.434658,403.921449 179.914112,409.752734 181.655529,415.925928 C181.655529,415.925928 181.345493,416.05197 180.868849,416.204091 C179.766337,416.560487 177.758347,417.053068 176.505164,416.44024 C176.447214,416.408367 176.389263,416.376494 176.337107,416.34607 C176.337107,416.34607 177.894531,403.569399 186.643631,399.415786 L186.647978,399.421581 C186.705928,399.64614 186.737801,399.830133 186.737801,399.956176 C186.737801,400.360382 187.130417,401.875791 187.492608,403.889577" id="Fill-49" fill="#FEFEFE"></path>
                <path d="M155.79389,194.570796 C155.79389,194.570796 153.606253,202.075406 151.314304,209.103372 C149.41642,214.946247 147.448996,220.463149 146.615955,221.055694 C146.085706,221.433823 145.146906,222.178488 144.051638,223.205664 C141.333753,225.749698 137.658232,230.019212 136.913566,234.692932 C136.026921,240.219976 132.533946,242.76401 131.699456,241.226869 C131.537194,240.938564 131.474898,240.514076 131.537194,239.937467 C131.931259,236.266293 131.144579,231.80699 130.357899,227.873589 C129.571218,223.940188 133.504619,215.02448 135.586496,211.353306 C137.668374,207.682132 138.486927,158.38351 138.486927,149.204126 C138.486927,141.24895 128.039872,125.00683 125.25969,120.831485 C124.867074,120.243286 124.630925,119.897031 124.593257,119.840529 C125.07135,120.0506 155.557741,133.518333 158.678384,139.239511 C161.825104,145.008499 155.79389,194.570796 155.79389,194.570796" id="Fill-51" fill="#CFD1D2"></path>
                <path d="M155.79389,194.570796 C155.79389,194.570796 148.451542,219.744561 146.615955,221.055694 C146.085706,221.433823 145.146906,222.178488 144.051638,223.205664 C145.777119,205.117816 148.261754,179.944051 149.935079,166.947168 C152.038687,150.689112 134.269568,130.10359 125.25969,120.831485 C124.867074,120.243286 124.630925,119.897031 124.593257,119.840529 C125.07135,120.0506 155.557741,133.518333 158.678384,139.239511 C161.825104,145.008499 155.79389,194.570796 155.79389,194.570796" id="Fill-53" fill="#BABCBE"></path>
                <path d="M151.314884,209.103662 C149.415551,214.946536 147.449575,220.463439 146.615086,221.055984 C146.086286,221.434112 145.147485,222.178778 144.050769,223.205954 C141.334332,225.749987 137.657363,230.019502 136.912697,234.691773 C136.026052,240.220266 132.534525,242.762851 131.700036,241.227158 C132.743148,240.628818 134.270147,239.271324 134.552657,236.438986 C134.988735,232.069506 137.437151,224.202705 139.44659,222.104891 C141.460375,220.007077 148.362298,212.140276 148.540496,207.157968 C148.602793,205.384678 149.799474,206.675529 151.314884,209.103662" id="Fill-55" fill="#BABCBE"></path>
                <path d="M215.844822,123.243681 C215.844822,123.243681 190.492859,142.449977 174.149325,151.243989 C167.101077,155.041206 161.724705,156.898524 160.775763,154.44866 C160.141203,152.807208 159.019858,151.191834 157.540668,149.592395 C151.713729,143.262735 140.296001,137.069259 130.881917,129.537123 C119.081715,120.096961 102.823659,99.6432771 98.6265828,89.1542086 C94.4309554,78.6636912 92.3331417,62.3694158 92.3331417,62.3694158 C97.2270745,65.0438385 99.8334052,68.8352601 101.202489,72.3963279 C98.2281721,40.6190862 111.739367,32.7740163 111.739367,32.7740163 C113.495272,31.3527765 116.721675,38.8052307 118.032808,38.809577 C119.343942,38.809577 125.2071,37.5100336 134.815318,41.4434343 C153.381259,49.048009 174.411552,75.254744 180.706442,88.1053017 C186.999883,100.954411 215.844822,123.243681 215.844822,123.243681" id="Fill-57" fill="#6DCEF5"></path>
                <path d="M174.15005,118.261374 L174.15005,151.245438 C167.100352,155.042655 161.725429,156.898524 160.776487,154.44866 C160.141928,152.807208 159.019134,151.191834 157.539943,149.592395 C158.782985,141.735735 158.69461,132.453489 155.269726,125.603722 C149.238512,113.541293 138.533577,89.4584495 138.533577,89.4584495 L142.090299,87.0563949 L174.15005,118.261374 Z" id="Fill-59" fill="#68C4E9"></path>
                <path d="M166.283103,194.833023 C164.331615,197.697234 165.024125,201.142401 165.448614,204.557143 C165.454409,204.609299 165.460204,204.661454 165.46455,204.71361 C165.884693,208.128352 165.989004,211.505427 162.868361,214.2378 C156.790786,219.562016 150.459677,217.284556 150.759572,224.003934 C150.769713,224.234288 150.785649,224.474783 150.811727,224.726868 C151.550598,231.870735 154.833503,235.772263 151.530315,239.265239 C151.320244,239.491247 151.084095,239.717254 150.811727,239.937467 C150.811727,239.937467 143.379556,223.285346 142.955067,216.823848 C143.007223,218.061094 143.055032,223.914111 139.535979,223.677962 C139.488169,223.673615 139.446155,223.673615 139.404141,223.662025 C135.712684,223.117289 140.327005,210.524612 140.847112,207.157679 C141.371566,203.748731 148.18946,199.028651 150.811727,195.619703 C153.433994,192.210756 170.478731,137.141697 168.11869,130.061576 C165.75865,122.981455 138.266859,90.7275688 137.982901,88.3675284 C137.700392,86.007488 128.648499,72.097882 147.665007,65.878328 C151.860634,64.5034487 159.727435,66.8634891 161.825249,71.0591165 C163.923063,75.254744 189.705309,118.853919 190.145734,128.750442 C190.586159,138.646965 174.796055,182.346106 166.283103,194.833023" id="Fill-61" fill="#CFD1D2"></path>
                <path d="M151.530026,239.265384 C151.319954,239.491392 151.083806,239.71595 150.811437,239.936163 C150.811437,239.936163 143.379266,223.285491 142.954777,216.823993 C143.006933,218.061239 143.054742,223.914255 139.535689,223.678107 C139.487879,223.67376 139.445865,223.67376 139.403851,223.66217 C140.578801,221.549869 142.576649,217.436821 142.944636,213.320876 C142.944636,213.320876 148.451397,232.987879 150.024757,235.34792 C150.711473,236.38089 151.199707,237.8963 151.530026,239.265384" id="Fill-63" fill="#BABCBE"></path>
                <path d="M162.86894,214.23809 C156.789917,219.562306 150.460256,217.284845 150.758702,224.004224 C150.758702,224.004224 148.802868,219.876688 151.315029,216.729968 C153.82719,213.581799 156.842072,215.418834 160.775473,211.746212 C164.626294,208.15472 165.717215,207.07394 165.46513,204.7139 C165.885272,208.127193 165.989583,211.505716 162.86894,214.23809" id="Fill-65" fill="#BABCBE"></path>
                <path d="M118.645057,67.4826919 C118.645057,67.4826919 134.330851,83.6972851 138.533722,89.4575802 C142.736593,95.2164266 149.238657,107.859811 148.085439,110.516848 C139.274042,94.748475 128.43582,90.7411873 118.645057,67.4826919" id="Fill-67" fill="#68C4E9"></path>
                <path d="M129.833445,98.4190695 C129.833445,98.4190695 147.140408,106.285871 150.986883,112.929914 C154.833358,119.572507 156.341524,125.341495 156.341524,125.341495 L129.833445,98.4190695 Z" id="Fill-69" fill="#68C4E9"></path>
                <path d="M44.2039637,67.4460381 C42.7928652,57.3394438 44.9848488,53.4321209 46.3177138,52.0369589 C43.9214542,54.9794034 50.1250719,66.7013721 44.2039637,67.4460381" id="Fill-71" fill="#68C4E9"></path>
                <path d="M47.1827722,51.3556041 C46.9944326,51.4758517 46.8263757,51.591753 46.6786015,51.6960642 C46.9205455,51.4917881 47.1045388,51.3918232 47.1827722,51.3556041" id="Fill-73" fill="#152B34"></path>
                <path d="M75.1995959,428.261159 C75.1995959,432.168482 72.0311439,435.34128 68.1194746,435.34128 C65.5754409,435.34128 63.3472382,433.998274 62.0984016,431.980142 C61.431969,430.899363 61.0436997,429.624448 61.0436997,428.261159 C61.0436997,424.353836 64.2121517,421.181038 68.1194746,421.181038 C70.1274648,421.181038 71.936974,422.014078 73.2278249,423.36288 C74.4491349,424.631999 75.1995959,426.361826 75.1995959,428.261159" id="Fill-75" fill="#CFD1D2"></path>
                <path d="M74.2818024,427.081139 C74.2818024,430.988462 71.1133504,434.16126 67.2016811,434.16126 C65.1980372,434.16126 63.382733,433.32822 62.0976772,431.979418 C61.4326934,430.900087 61.044424,429.625173 61.044424,428.261883 C61.044424,424.353112 64.2114273,421.180313 68.1187503,421.180313 C70.1281892,421.180313 71.9376984,422.014803 73.2271005,423.362156 C73.893533,424.442935 74.2818024,425.71785 74.2818024,427.081139" id="Fill-77" fill="#FEFEFE"></path>
                <path d="M312.824518,186.506093 C312.824518,185.668707 328.872504,173.712038 330.231446,172.245886 C331.597633,170.772491 328.343704,167.62577 327.927908,167.311388 C327.506317,166.997005 325.511366,165.32368 323.309241,165.952445 C321.105667,166.581209 308.941824,174.329212 308.311611,178.168443 C307.682847,182.00043 309.464829,185.354324 309.464829,186.191711 L309.464829,192.982079 L312.824518,192.982079 L312.824518,186.506093 Z" id="Fill-79" fill="#BFC3C8"></path>
                <path d="M312.824518,194.794631 L312.824518,192.982224 L309.464829,192.982224 L309.464829,194.617881 L309.728505,194.632369 L309.728505,212.640535 C310.648471,212.675305 311.598862,212.715871 312.560843,212.760783 L312.560843,194.780143 L312.824518,194.794631 Z" id="Fill-81" fill="#59595C"></path>
                <path d="M297.360531,178.974681 C297.360531,178.137294 313.408516,166.180626 314.767459,164.714474 C316.133646,163.242527 312.879716,160.094358 312.46392,159.779976 C312.042329,159.465593 310.047378,157.792268 307.845253,158.421033 C305.64168,159.049797 293.477837,166.7978 292.847624,170.635582 C292.218859,174.469018 293.999393,177.822912 293.999393,178.660299 L293.999393,185.450667 L297.360531,185.450667 L297.360531,178.974681 Z" id="Fill-83" fill="#BFC3C8"></path>
                <path d="M294.263938,193.148977 L294.263938,196.785381 C294.524716,197.007042 294.717402,197.375029 294.717402,197.708245 L294.717402,203.771332 C294.717402,204.176987 294.436341,204.362429 294.087188,204.185679 L292.829659,203.545325 L292.829659,204.750698 L292.829659,211.464282 L292.103827,211.094846 L292.103827,212.584178 C294.114715,212.516086 295.873517,212.472623 297.096276,212.447994 L297.096276,194.5905 L294.263938,193.148977 Z" id="Fill-85" fill="#59595C"></path>
                <polygon id="Fill-87" fill="#59595C" points="297.360531 187.192954 297.360531 185.450088 293.999393 185.450088 293.999393 185.481961"></polygon>
                <path d="M287.417213,158.698327 C287.417213,157.724756 306.080221,143.819496 307.660825,142.114298 C309.248673,140.401856 305.464495,136.742272 304.982056,136.377183 C304.490924,136.010645 302.171449,134.063503 299.610031,134.79513 C297.048612,135.526757 282.901408,144.536635 282.169781,149.000285 C281.438154,153.458139 283.50989,157.359667 283.50989,158.333238 L283.50989,166.229014 L287.417213,166.229014 L287.417213,158.698327 Z" id="Fill-89" fill="#BFC3C8"></path>
                <path d="M287.109929,189.426082 C286.902756,189.200075 286.757879,188.882795 286.757879,188.59449 L286.757879,182.532852 C286.757879,182.244547 286.902756,182.075042 287.109929,182.060554 L287.109929,168.320454 L287.417068,168.33639 L287.417068,166.229884 L283.509745,166.229884 L283.509745,168.132114 L283.816883,168.14805 L283.816883,191.426828 L287.109929,193.103051 L287.109929,189.426082 Z" id="Fill-91" fill="#59595C"></path>
                <path d="M287.109929,208.554 L283.816883,206.877777 L283.816883,212.977083 C284.893317,212.906094 286.003072,212.843797 287.109929,212.788744 L287.109929,208.554 Z" id="Fill-93" fill="#59595C"></path>
                <polygon id="Fill-95" fill="#59595C" points="287.109929 200.634898 283.816883 198.960124 283.816883 200.164049 287.109929 201.840271"></polygon>
                <path d="M303.277727,197.736061 L302.018749,197.095706 L302.018749,212.426552 C302.454828,212.433796 303.103875,212.445386 303.906492,212.46422 L303.906492,197.321714 C303.906492,197.727369 303.625431,197.912811 303.277727,197.736061" id="Fill-97" fill="#59595C"></path>
                <path d="M286.757589,182.532707 L286.757589,188.594345 C286.757589,188.88265 286.902466,189.201378 287.10964,189.425937 C287.193668,189.518658 287.286389,189.59834 287.386354,189.650496 L294.263648,193.149267 L297.095986,194.590789 L302.018894,197.095706 L303.277872,197.736061 C303.625576,197.912811 303.906637,197.727369 303.906637,197.321714 L303.906637,191.258627 C303.906637,190.852972 303.625576,190.380674 303.277872,190.203925 L297.36111,187.193388 L293.999972,185.482395 L287.386354,182.11836 C287.286389,182.066204 287.193668,182.053165 287.10964,182.060409 C286.902466,182.074897 286.757589,182.244402 286.757589,182.532707" id="Fill-99" fill="#BABCBE"></path>
                <path d="M292.103682,211.094991 L292.829514,211.464426 L292.829514,204.750843 L287.109784,201.840271 L283.816738,200.164049 L279.060438,197.744609 C278.751851,197.586693 278.499766,197.751853 278.499766,198.114044 L278.499766,203.517943 C278.499766,203.880134 278.751851,204.301725 279.060438,204.458192 L283.816738,206.877632 L287.109784,208.553855 L292.103682,211.094991 Z" id="Fill-101" fill="#BABCBE"></path>
                <path d="M292.829369,203.545469 L294.088347,204.185824 C294.436051,204.362574 294.717112,204.177132 294.717112,203.771477 L294.717112,197.70839 C294.717112,197.375173 294.524426,197.007187 294.263648,196.785526 C294.207146,196.736267 294.150644,196.685561 294.088347,196.653688 L287.10964,193.102761 L283.816594,191.426539 L278.198278,188.568123 C277.849125,188.389924 277.568064,188.576815 277.568064,188.98247 L277.568064,195.044108 C277.568064,195.451212 277.849125,195.92351 278.198278,196.100259 L283.816594,198.960124 L287.10964,200.634898 L292.829369,203.545469 Z" id="Fill-103" fill="#BABCBE"></path>
                <path d="M325.303612,398.852361 L325.303612,223.508166 C325.357217,223.424138 325.399231,223.331417 325.407924,223.225657 C325.415167,223.145975 325.403577,223.06919 325.381846,222.996752 L325.617995,222.169506 L325.617995,218.708403 C325.617995,218.708403 326.56259,216.191896 325.617995,214.46062 C325.131209,213.566731 318.681301,213.050971 312.560263,212.761217 C311.599731,212.714857 310.647892,212.67574 309.727925,212.639521 C307.470747,212.554044 305.416396,212.498991 303.906782,212.46422 C303.104165,212.445386 302.453669,212.433796 302.019039,212.426552 C301.617731,212.41786 301.390275,212.414962 301.390275,212.414962 L298.872319,212.414962 C298.872319,212.414962 298.200091,212.425103 297.096131,212.448284 C295.873372,212.472913 294.11457,212.516376 292.103682,212.584468 C290.540463,212.636623 288.832368,212.703267 287.109784,212.788744 C286.004376,212.843797 284.893172,212.906094 283.816738,212.977083 C279.109697,213.287119 275.027073,213.75652 274.64315,214.46062 C273.700003,216.191896 274.64315,218.708403 274.64315,218.708403 L274.64315,222.169506 L274.879299,222.995303 C274.857567,223.067741 274.845977,223.144526 274.853221,223.222759 C274.860465,223.329968 274.903928,223.422689 274.957532,223.508166 L274.957532,398.852361 L274.223973,399.639041 L274.223973,402.471379 L275.902128,403.730357 L275.902128,409.707967 C275.902128,409.707967 285.971054,414.900346 300.131297,414.900346 C314.291539,414.900346 324.360466,409.707967 324.360466,409.707967 L324.360466,403.730357 L326.038137,402.471379 L326.038137,399.639041 L325.303612,398.852361 Z" id="Fill-105" fill="#6DCEF5"></path>
                <polyline id="Fill-107" fill="#68C4E9" points="276.047004 222.493305 275.900679 221.99493 275.900679 218.864146"></polyline>
                <path d="M275.637873,217.620959 C275.485752,216.944385 275.369851,215.983853 275.653809,215.266714 C277.080844,214.646642 283.666936,214.14392 291.093312,213.865757 L290.470343,222.739451 C288.152317,257.333094 284.329022,333.302057 290.77893,388.139313 C291.549674,394.668903 296.207458,399.787395 298.641385,402.05906 L300.124922,403.338321 L300.124922,406.354652 L300.124922,407.61363 L300.124922,413.63905 C288.51306,413.63905 279.623429,410.025826 277.159077,408.913174 L277.159077,404.581362 L277.159077,403.286165 L277.159077,403.102172 L275.479957,401.843194 L275.479957,400.13365 L275.569781,400.03948 L276.214482,398.900749 L276.214482,223.741997 L275.637873,217.620959 Z" id="Fill-109" fill="#68C4E9"></path>
            </g>
            <g id="Group-9-Copy" transform="translate(0.000000, 251.000000)">
                <g id="Group-3">
                    <mask id="mask-2" fill="white">
                        <use xlink:href="#path-1"></use>
                    </mask>
                    <g id="Clip-2"></g>
                    <path d="M42.1268877,116 L44.9739321,116 C44.0160611,105.216594 41.4752558,85.5899283 34.771557,61.8563641 C35.979733,61.1835378 37.5850409,59.86726 39.0015713,58.6055358 C43.4623138,57.1689607 59.2105523,51.5415587 52.2495568,45.607818 C42.9421269,37.6723839 38.6603735,55.242803 37.966791,58.4600599 C36.5153018,59.5609212 35.3714499,60.5414852 34.5981614,61.23949 C32.9704798,55.5225644 31.1022817,49.5734368 28.95721,43.4536547 C30.3877239,42.4073468 32.5719495,39.9790172 34.4583262,37.7339314 C34.4429443,37.9143776 34.4359525,38.0220857 34.4359525,38.0220857 C34.4359525,38.0220857 52.7991091,30.1328123 45.2172453,25.1572546 C37.291387,19.9564889 35.1071614,32.0869462 34.5841778,36.4931893 C31.8839604,39.1914887 29.8409684,41.5834492 28.7628391,42.8997269 C27.2092702,38.4934838 25.5088743,34.0005146 23.6532614,29.4459979 L23.6560581,29.4473967 C23.6560581,29.4473967 23.6490664,29.4348074 23.6462697,29.4292122 C23.4393136,28.9200463 23.6504647,29.430611 23.4393136,28.9200463 C24.2587478,27.412132 27.4078361,24.2382382 29.9080892,21.2363976 C29.915081,21.3147308 29.9206744,21.3678855 29.9206744,21.3678855 C29.9206744,21.3678855 46.6463609,10.4264144 38.3191756,6.83567597 C29.3123914,2.95118797 29.5626963,16.281822 29.8297815,20.2684229 C25.7605777,24.3165714 23.1442613,27.7114768 23.0114179,27.8849289 C22.4045332,26.41758 18.6331783,15.5390553 18.6331783,15.5390553 C17.4389858,6.87484257 18.055659,-2.0131793 12.9153175,0.402560987 C3.70297554,4.73186972 14.9722931,13.8800698 17.6683155,15.9139356 C18.7030959,18.3198843 20.4943846,22.612824 22.6548382,28.3227556 C20.9516456,26.9715077 17.5200902,25.3628793 14.8688151,24.2242501 C13.1110868,21.5944923 4.05116515,8.64992909 0.732876206,16.1223579 C-3.34891285,25.3181174 10.7800343,24.972612 14.3626117,24.7432076 C18.2933788,27.1295729 21.608871,28.6039159 22.9764591,29.1732305 C24.5510033,33.3668549 26.3045365,38.2780675 28.0944269,43.7306185 C27.9671769,43.8914814 27.9014543,43.9782074 27.9014543,43.9782074 C27.9769653,43.9726122 28.0636632,43.9474336 28.1559544,43.9152611 C28.2090917,44.0775227 28.2622291,44.242582 28.3167648,44.4062425 C26.6485311,43.0256196 22.7611129,41.2994913 20.6873571,40.430832 C17.6948842,37.2023846 8.15672619,27.6765066 6.0857671,35.0118523 C2.96184906,46.0736208 21.5906924,41.432378 21.5906924,41.432378 C21.5906924,41.432378 21.5487419,41.3848186 21.485816,41.3120806 C24.6922368,43.3375536 27.4176246,44.583891 28.527916,45.0580867 C30.2381003,50.334388 31.9692599,56.0876826 33.5983398,62.1724945 C33.511642,62.2578218 33.459903,62.3095777 33.459903,62.3095777 C33.5144387,62.3109765 33.5731695,62.3067801 33.6332986,62.2983872 C33.9059772,63.3223142 34.1772575,64.3560328 34.4443427,65.3981443 C34.1045432,63.9154085 29.4186661,60.8030622 27.0610449,59.3175288 C27.0988004,59.3147311 27.1225724,59.3133323 27.1225724,59.3133323 C27.1225724,59.3133323 13.9081474,38.15777 9.21388019,48.4571885 C3.77848654,60.3848188 23.2295608,59.5777069 26.616369,59.3511001 C30.7401086,63.2160048 34.4345542,65.4107336 34.4499361,65.4191264 C38.4883762,81.1529114 41.718569,98.8324375 42.1268877,116" id="Fill-1" fill="#E6E7E8" mask="url(#mask-2)"></path>
                </g>
                <g id="Group-6" transform="translate(49.000000, 26.000000)">
                    <mask id="mask-4" fill="white">
                        <use xlink:href="#path-3"></use>
                    </mask>
                    <g id="Clip-5"></g>
                    <path d="M48.3720036,15.4349859 C44.063988,8.95409129 38.1709883,17.7363029 36.537455,20.4468961 C31.9524242,21.2943871 28.6439483,22.3540953 28.4768824,22.4078386 C28.7339068,21.1869004 31.1385135,12.454298 31.1385135,12.454298 C34.272784,6.29310736 38.7321584,0.782348815 34.1656904,0.0960878109 C25.985173,-1.13174061 29.4235891,9.76713143 30.3160352,12.2737755 C29.9205031,14.2939736 29.1765601,17.8741063 28.037085,22.5373738 C27.5030452,20.9099155 25.919489,18.3564183 24.6500737,16.4519751 C24.6600691,13.9701356 24.4373146,1.57058435 18.8013393,4.97432868 C11.8673905,9.16493051 21.552929,15.1442207 24.0717687,16.5677299 C25.63819,19.8460732 27.2031834,22.260389 27.8657353,23.230525 C27.0204104,26.6508058 25.969466,30.616788 24.6971949,34.9493274 C24.5386965,34.9975586 24.4544496,35.0251193 24.4544496,35.0251193 C24.5087103,35.055436 24.5772501,35.0774846 24.6543575,35.095399 C24.6172317,35.2263122 24.5772501,35.3558475 24.5401244,35.4853827 C24.0432104,33.8565463 22.2069134,31.0260642 21.2030901,29.5501896 C20.6533434,26.135421 18.5528823,15.7505557 13.8193485,19.6145634 C6.68263599,25.4381357 21.3558769,30.5988736 21.3558769,30.5988736 C21.3558769,30.5988736 21.3501652,30.5492644 21.3401698,30.4748505 C22.5810268,33.2006021 23.8532979,35.2070198 24.3844818,36.0035235 C23.1393411,40.1872352 21.6900087,44.6892727 20.0222055,49.3635645 C19.9236795,49.381479 19.8665629,49.3925033 19.8665629,49.3925033 C19.9022608,49.4173079 19.9436703,49.4393564 19.9879356,49.461405 C19.7066366,50.2468844 19.418198,51.037876 19.1254757,51.8330017 C19.5695569,50.7195501 17.8260743,46.637813 16.9107816,44.6369074 C16.937912,44.6506878 16.9550469,44.660334 16.9550469,44.660334 C16.9550469,44.660334 17.66472,25.0950052 9.81547858,29.7348462 C0.725380146,35.1091793 14.209169,43.1238259 16.5966406,44.4632751 C17.6190268,48.7875463 19.1126245,51.8371358 19.1183362,51.8495381 C14.4390631,64.5302083 8.15195916,78.2113313 0,90.0004134 L2.85439943,90.0004134 C7.05674937,82.7340394 14.5018913,68.5885189 20.957489,49.6722442 C22.0769733,49.7659505 23.7576277,49.6143667 25.2869232,49.4145518 C28.9495218,50.4398092 42.1277371,53.6919698 40.1329417,46.7756164 C37.464171,37.5262512 26.5863247,47.0787839 24.6557854,48.8660942 C23.1764668,48.9460202 21.9584565,49.0810675 21.1188432,49.1954444 C22.6224363,44.7623085 24.0689129,40.0701023 25.4054401,35.1477643 C26.844777,35.095399 29.4221612,34.4739056 31.7153906,33.8413879 C31.6240041,33.9530087 31.5697434,34.0191543 31.5697434,34.0191543 C31.5697434,34.0191543 47.5409578,36.9488549 44.6908421,30.3839003 C41.7107863,23.5199122 34.7211489,30.452802 32.3650913,33.0889813 C29.3179235,33.6608655 26.8519166,34.3181877 25.5253848,34.7026593 C26.482087,31.1528433 27.3788168,27.4831384 28.1984392,23.7059468 L28.1998671,23.7073248 C28.1998671,23.7073248 28.201295,23.6963006 28.201295,23.6921665 C28.2926815,23.26911 28.2041509,23.6949225 28.2926815,23.26911 C29.5321106,22.6489946 33.0990389,21.9668677 36.1504904,21.1111085 C36.1205043,21.1648518 36.0990856,21.2020588 36.0990856,21.2020588 C36.0990856,21.2020588 52.3544548,21.4266783 48.3720036,15.4349859" id="Fill-4" fill="#E6E7E8" mask="url(#mask-4)"></path>
                </g>
                <mask id="mask-6" fill="white">
                    <use xlink:href="#path-5"></use>
                </mask>
                <g id="Clip-8"></g>
            </g>
            <g id="Group-4" transform="translate(471.825610, 228.000000)" fill="#E6E7E8">
                <path d="M211.910386,250 L218.448001,250 C216.248459,226.759901 210.414056,184.461052 195.020479,133.311129 C197.794791,131.861073 201.481029,129.024267 204.733781,126.305034 C214.9769,123.208967 251.139283,111.080946 235.15488,98.2927111 C213.782405,81.1904825 203.950295,119.057765 202.357635,125.991508 C199.024607,128.364054 196.398002,130.477339 194.622314,131.98166 C190.8847,119.660699 186.594792,106.839303 181.669104,93.6501178 C184.953966,91.3951439 189.969562,86.161675 194.301213,81.3231281 C194.265892,81.7120206 194.249837,81.9441503 194.249837,81.9441503 C194.249837,81.9441503 236.416807,64.9414058 219.006716,54.2182211 C200.806717,43.0096743 195.791121,69.1529012 194.590204,78.6491149 C188.389746,84.4644152 183.698461,89.6195027 181.222774,92.4563081 C177.655343,82.9600944 173.750756,73.2769711 169.489747,63.4612024 L169.496169,63.464217 C169.496169,63.464217 169.480114,63.437085 169.473692,63.4250263 C168.998462,62.3276861 169.483325,63.428041 168.998462,62.3276861 C170.880114,59.0778707 178.111306,52.2375822 183.85259,45.7680982 C183.868645,45.9369198 183.881489,46.0514773 183.881489,46.0514773 C183.881489,46.0514773 222.288367,22.4707207 203.166809,14.7320603 C182.4847,6.3603189 183.059471,35.0901336 183.672773,43.6819459 C174.328737,52.4064038 168.320939,59.7230103 168.015894,60.0968295 C166.622316,56.9344396 157.962224,33.4893433 157.962224,33.4893433 C155.220023,14.8164711 156.636078,-4.33874849 144.832409,0.867588334 C123.678282,10.1979951 149.555803,29.9139434 155.746628,34.2972751 C158.122775,39.4825092 162.236077,48.7345345 167.197086,61.0404215 C163.286077,58.1282494 155.406261,54.6613777 149.318188,52.2074355 C145.28195,46.539854 124.477823,18.6420886 116.858098,34.7464611 C107.485163,54.5649082 139.929198,53.8202845 148.155803,53.3258785 C157.181949,58.4689072 164.795252,61.6463704 167.935618,62.8733415 C171.551214,71.9113252 175.57782,82.4958351 179.687911,94.2470226 C179.395709,94.5937098 179.244792,94.7806194 179.244792,94.7806194 C179.418186,94.7685607 179.617269,94.7142966 179.829196,94.6449592 C179.951214,94.9946611 180.073232,95.3503922 180.198462,95.7031087 C176.367728,92.7276285 167.441123,89.0075244 162.679197,87.1354137 C155.807637,80.1775531 133.905345,59.6476435 129.149841,75.4565783 C121.976447,99.2965966 164.753508,89.2939182 164.753508,89.2939182 C164.753508,89.2939182 164.657178,89.1914194 164.512683,89.0346565 C171.875526,93.3999001 178.133783,96.085972 180.683324,97.1079454 C184.610388,108.479284 188.585617,120.878626 192.326443,133.992445 C192.12736,134.17634 192.008553,134.287883 192.008553,134.287883 C192.133782,134.290898 192.268644,134.281854 192.406718,134.263766 C193.032865,136.470505 193.6558,138.698347 194.269103,140.944276 C193.488828,137.748725 182.728737,131.041082 177.314976,127.839502 C177.401673,127.833472 177.45626,127.830458 177.45626,127.830458 C177.45626,127.830458 147.112225,82.2365734 136.332868,104.433596 C123.851676,130.139696 168.516811,128.40023 176.293875,127.911854 C185.76314,136.24139 194.246626,140.971409 194.281947,140.989497 C203.555341,174.898516 210.972772,213.000943 211.910386,250" id="Fill-1"></path>
                <path d="M336.777003,87.6138148 C327.193904,73.4999315 314.085036,92.6255489 310.451272,98.5285913 C300.251958,100.37423 292.892315,102.682028 292.52068,102.799069 C293.092426,100.140149 298.441428,81.1225689 298.441428,81.1225689 C305.413554,67.7049264 315.333349,55.703774 305.175327,54.2092569 C286.977919,51.5353318 294.626611,75.2705441 296.611841,80.7294328 C295.731987,85.1289551 294.0771,92.9256527 291.542359,103.081166 C290.354398,99.5369402 286.831806,93.9760161 284.008016,89.8285811 C284.030251,84.4237111 283.534737,57.420368 270.997616,64.8329327 C255.573177,73.9590903 277.118476,86.9805957 282.721587,90.0806683 C286.206062,97.2201386 289.68736,102.477958 291.161195,104.590689 C289.280785,112.039266 286.942979,120.676254 284.112836,130.111519 C283.760259,130.216555 283.572854,130.276576 283.572854,130.276576 C283.693556,130.342599 283.846021,130.390615 284.017545,130.429629 C283.93496,130.714728 283.846021,130.996825 283.763436,131.278923 C282.65806,127.731696 278.573252,121.567563 276.340266,118.353451 C275.117364,110.916878 270.444928,88.3010526 259.915271,96.7159641 C244.039788,109.398352 276.680137,120.637241 276.680137,120.637241 C276.680137,120.637241 276.667432,120.529203 276.645197,120.367147 C279.40546,126.303201 282.235603,130.672713 283.417212,132.407313 C280.64742,141.518466 277.423407,151.322858 273.71341,161.50238 C273.494241,161.541394 273.367186,161.565402 273.367186,161.565402 C273.446595,161.619421 273.53871,161.667437 273.637177,161.715454 C273.011433,163.426046 272.369807,165.148642 271.718652,166.880241 C272.706502,164.455402 268.828157,155.566326 266.792106,151.208819 C266.852457,151.238829 266.890573,151.259836 266.890573,151.259836 C266.890573,151.259836 268.469228,108.651094 251.008738,118.75559 C230.787985,130.459639 260.782419,147.913678 266.093305,150.830688 C268.367584,160.247946 271.690064,166.889244 271.70277,166.916253 C261.293815,194.531808 247.30827,224.326117 229.17439,250 L235.523948,250 C244.871996,234.175525 261.433575,203.369866 275.793931,162.174613 C278.284202,162.378683 282.022787,162.048569 285.424676,161.613418 C293.572057,163.846191 322.88675,170.928642 318.449365,155.86643 C312.512735,135.723461 288.31517,156.526658 284.020721,160.419005 C280.730005,160.593065 278.020564,160.887167 276.15286,161.136253 C279.497575,151.481913 282.715235,141.263377 285.688314,130.543668 C288.890092,130.429629 294.623435,129.076161 299.724681,127.698684 C299.521393,127.941768 299.400691,128.085818 299.400691,128.085818 C299.400691,128.085818 334.928358,134.466026 328.588329,120.169079 C321.959251,105.220907 306.410933,120.319131 301.169928,126.060117 C294.39156,127.305548 288.905974,128.737043 285.955129,129.574333 C288.083295,121.843658 290.078054,113.851893 291.901288,105.626047 L291.904465,105.629048 C291.904465,105.629048 291.907641,105.60504 291.907641,105.596037 C292.110929,104.674718 291.913994,105.602039 292.110929,104.674718 C294.868015,103.324251 302.80258,101.838737 309.590477,99.9750918 C309.523773,100.092132 309.476128,100.17316 309.476128,100.17316 C309.476128,100.17316 345.635891,100.66233 336.777003,87.6138148" id="Fill-4"></path>
                <path d="M143.652462,102.183132 C134.319709,88.0763594 120.88355,107.626521 117.14858,113.653739 C106.921772,115.689 99.5252826,118.144162 99.1517782,118.268649 C99.7695985,115.571517 105.447563,96.259671 105.447563,96.259671 C112.650321,82.5811993 122.774712,70.2854617 112.647386,68.9438282 C94.5049096,66.5438204 101.736474,90.4079554 103.625665,95.8927333 C102.669545,100.354381 100.879546,108.262767 98.1689891,118.570069 C97.0433357,115.007354 93.6192658,109.445019 90.8690444,105.299802 C90.9854574,99.836225 90.9607481,72.5496662 78.3001923,80.2508378 C62.7237789,89.7321387 84.0322898,102.535709 89.5788118,105.576015 C92.937274,112.734568 96.3253521,117.991214 97.7616937,120.102226 C95.752342,127.662487 93.2650928,136.431596 90.2718209,146.01579 C89.9175752,146.127826 89.7292094,146.191613 89.7292094,146.191613 C89.8487055,146.25634 90.0002646,146.302338 90.17103,146.338919 C90.0835139,146.628469 89.9897004,146.915091 89.9022366,147.201608 C88.8591833,143.634485 84.8836657,137.471785 82.7077133,134.260135 C81.6149664,126.763643 77.3387874,103.981457 66.6673089,112.662393 C50.5780848,125.745813 83.0076302,136.56292 83.0076302,136.56292 C83.0076302,136.56292 82.9968133,136.453928 82.977413,136.290493 C85.6329666,142.244691 88.3856679,146.614276 89.5365071,148.347938 C86.6092068,157.603517 83.2158131,167.567376 79.3301206,177.918499 C79.1103717,177.96158 78.9829568,177.987962 78.9829568,177.987962 C79.0613883,178.041242 79.152624,178.088245 79.2502095,178.135141 C78.5949419,179.874608 77.9235905,181.626472 77.2425575,183.387596 C78.2722121,180.920148 74.5505504,171.999658 72.5913681,167.628995 C72.6511685,167.658325 72.6889014,167.678925 72.6889014,167.678925 C72.6889014,167.678925 75.0093594,124.584018 57.3807778,135.088094 C36.9653225,147.254915 66.6418568,164.398281 71.8994769,167.258409 C74.0086033,176.739472 77.2138264,183.397172 77.2260554,183.424261 C66.3406211,211.511074 51.842267,241.859667 33.2692822,268.112382 L39.6159324,268.006735 C49.2354672,251.85592 66.3262998,220.4422 81.3979735,178.563371 C83.8835487,178.728209 87.6261736,178.332328 91.0340881,177.835878 C99.1388291,179.957189 128.316674,186.62833 124.143804,171.477377 C118.560917,151.215771 94.0119036,172.64612 89.6515913,176.651932 C86.3593487,176.882624 83.6460231,177.224981 81.7748337,177.507832 C85.2862592,167.693636 88.6805202,157.31127 91.8390466,146.42639 C95.0413458,146.257847 100.795649,144.794375 105.918564,143.317154 C105.711133,143.566244 105.587976,143.713857 105.587976,143.713857 C105.587976,143.713857 140.988188,149.571801 134.90021,135.226029 C128.534663,120.226812 112.730355,135.7467 107.391704,141.636854 C100.594737,143.00851 95.0867164,144.546728 92.1226315,145.442153 C94.3845425,137.592627 96.5176571,129.481413 98.4834056,121.136446 L98.4865282,121.139426 C98.4865282,121.139426 98.4901215,121.115106 98.4902784,121.106006 C98.7095283,120.17136 98.4965236,121.111967 98.7095283,120.17136 C101.488886,118.760443 109.445705,117.126875 116.262971,115.130175 C116.194258,115.249588 116.145222,115.332284 116.145222,115.332284 C116.145222,115.332284 152.279902,115.225087 143.652462,102.183132" id="Fill-4" transform="translate(89.126412, 168.443599) scale(-1, 1) rotate(22.000000) translate(-89.126412, -168.443599) "></path>
                <path d="M119.17439,252 L292.17439,252 C292.17439,252 214.001502,202.5 119.17439,252" id="Fill-7"></path>
            </g>
        </g>
    </g>
</svg>