<?xml version="1.0" encoding="UTF-8"?>
<svg width="760px" height="478px" viewBox="0 0 760 478" version="1.1" xmlns="http://www.w3.org/2000/svg" xmlns:xlink="http://www.w3.org/1999/xlink">
    <title>Artboard</title>
    <defs>
        <polygon id="path-1" points="0 0 68 0 68 144 0 144"></polygon>
        <polygon id="path-3" points="0 0 60 0 60 113 0 113"></polygon>
        <polyline id="path-5" points="1 144 122 144 122 0 1 0"></polyline>
        <polygon id="path-7" points="0 0 351.281719 0 351.281719 10.4758483 0 10.4758483"></polygon>
        <polygon id="path-9" points="0 0 125.71595 0 125.71595 125.717728 0 125.717728"></polygon>
        <polygon id="path-11" points="0 0 103.621407 0 103.621407 19.7822263 0 19.7822263"></polygon>
        <polygon id="path-13" points="0 0 102.059189 0 102.059189 80.5474237 0 80.5474237"></polygon>
        <polygon id="path-15" points="0 0 24.7335627 0 24.7335627 24.2191814 0 24.2191814"></polygon>
        <polygon id="path-17" points="0 0 120 0 120 258 0 258"></polygon>
        <polygon id="path-19" points="0 0 108 0 108 201 0 201"></polygon>
        <polyline id="path-21" points="2 258 218 258 218 0 2 0"></polyline>
    </defs>
    <g id="Artboard" stroke="none" stroke-width="1" fill="none" fill-rule="evenodd">
        <g id="Group-4-Copy" transform="translate(0.000000, 0.335778)">
            <g id="Group-9" transform="translate(0.000000, 245.664222)">
                <g id="Group-3">
                    <mask id="mask-2" fill="white">
                        <use xlink:href="#path-1"></use>
                    </mask>
                    <g id="Clip-2"></g>
                    <path d="M53.0486734,144 L56.6338404,144 C55.4276325,130.613703 52.2280999,106.249566 43.7864051,76.7872106 C45.3078119,75.9519779 47.3293108,74.317978 49.1130898,72.7516996 C54.730321,70.968365 74.5614362,63.9826246 65.7957382,56.6166016 C54.0752709,46.7657179 48.6834333,68.5772726 47.8100331,72.5711088 C45.9822318,73.9376953 44.5418258,75.1549471 43.568055,76.0214359 C41.518382,68.9245627 39.1658363,61.5394388 36.4646348,53.9424678 C38.2660227,52.6436029 41.016529,49.6291248 43.3919663,46.8421218 C43.3725965,47.0661239 43.3637921,47.1998306 43.3637921,47.1998306 C43.3637921,47.1998306 66.487767,37.4062498 56.9402349,31.2296953 C46.9595244,24.7735724 44.2090181,39.8320711 43.5504462,45.3018902 C40.1501724,48.6515032 37.5775157,51.6208335 36.2198714,53.2548334 C34.2635254,47.7850144 32.1222862,42.2075354 29.7855884,36.5536526 L29.7891102,36.555389 C29.7891102,36.555389 29.7803058,36.539761 29.776784,36.5328152 C29.5161727,35.9007472 29.7820667,36.5345516 29.5161727,35.9007472 C30.5480527,34.0288535 34.5135714,30.0888474 37.6620383,26.3624246 C37.6708428,26.4596658 37.6778863,26.5256509 37.6778863,26.5256509 C37.6778863,26.5256509 58.7398619,12.9431351 48.2537767,8.48566672 C36.9119002,3.66354369 37.2270991,20.2119169 37.5634286,25.1608008 C32.4392459,30.1860886 29.1446254,34.4004539 28.9773411,34.6157738 C28.2131159,32.7942372 23.4640023,19.2898617 23.4640023,19.2898617 C21.9602043,8.53428733 22.7367557,-2.49911913 16.2637332,0.49973088 C4.66300624,5.87404517 18.8539987,17.2304314 22.2489899,19.7552304 C23.5520466,22.7419253 25.8077435,28.0710919 28.5283148,35.1592828 C26.3835538,33.4818716 22.0623358,31.4849536 18.7236931,30.0714829 C16.5102575,26.8069559 5.10146723,10.737843 0.922881148,20.0139616 C-4.21714952,31.4293871 13.574858,31.0004839 18.0862518,30.715706 C23.0361066,33.6780905 27.2111709,35.5083094 28.9333189,36.2150447 C30.9160782,41.4209233 33.1242312,47.517601 35.3781672,54.286285 C35.2179264,54.4859768 35.1351647,54.5936368 35.1351647,54.5936368 C35.2302527,54.586691 35.3394277,54.5554349 35.4556463,54.5154965 C35.52256,54.7169248 35.5894737,54.9218259 35.6581483,55.1249906 C33.5574095,53.411114 28.6621422,51.2683341 26.050746,50.1899983 C22.2824467,46.1822706 10.271433,34.3570427 7.66355857,43.4629891 C3.72973585,57.1948396 27.1882794,51.4332969 27.1882794,51.4332969 C27.1882794,51.4332969 27.1354527,51.3742576 27.0562128,51.2839621 C31.0939279,53.7983425 34.5258976,55.3455198 35.9240423,55.9341766 C38.0776078,62.4840678 40.2575865,69.6260887 42.3090205,77.1796484 C42.1998454,77.2855719 42.1346926,77.3498206 42.1346926,77.3498206 C42.2033672,77.351557 42.2773245,77.3463477 42.3530427,77.3359289 C42.6964157,78.6070107 43.0380279,79.8902476 43.3743574,81.1839033 C42.9464618,79.3432657 37.0457277,75.4796634 34.0768713,73.6355529 C34.1244153,73.63208 34.1543504,73.6303436 34.1543504,73.6303436 C34.1543504,73.6303436 17.5139633,47.3682663 11.6026639,60.1537513 C4.75809416,74.9604647 29.2520395,73.9585327 33.5169091,73.6772277 C38.7097664,78.4750405 43.3620312,81.1995313 43.381401,81.20995 C48.4668441,100.741545 52.5344943,122.688543 53.0486734,144" id="Fill-1" fill="#E6E7E8" mask="url(#mask-2)"></path>
                </g>
                <g id="Group-6" transform="translate(62.000000, 31.000000)">
                    <mask id="mask-4" fill="white">
                        <use xlink:href="#path-3"></use>
                    </mask>
                    <g id="Clip-5"></g>
                    <path d="M59.2310248,19.3794823 C53.9559037,11.2423591 46.7399857,22.2689136 44.7397409,25.6722139 C39.1254174,26.736286 35.0742224,28.0668086 34.8696519,28.1342863 C35.1843757,26.6013305 38.128792,15.6370631 38.128792,15.6370631 C41.9666742,7.9013459 47.4271327,0.982282401 41.8355393,0.120643585 C31.8185792,-1.42096321 36.0288847,12.2631761 37.1216757,15.4104071 C36.6373507,17.946878 35.7264001,22.4419335 34.3311244,28.2969249 C33.6771983,26.2535606 31.7381498,23.0475029 30.1837637,20.6563687 C30.196003,17.5402813 29.9232424,1.9719559 23.0220482,6.24554601 C14.5314986,11.5070794 26.3913416,19.0144104 29.4756351,20.8017054 C31.393702,24.9178474 33.3100205,27.9491551 34.1213086,29.1672148 C33.0862168,33.4615672 31.7993461,38.4410783 30.2414631,43.8808222 C30.0473834,43.9413791 29.9442239,43.9759831 29.9442239,43.9759831 C30.0106656,44.0140474 30.094592,44.0417306 30.1890091,44.0642232 C30.143549,44.228592 30.094592,44.3912307 30.0491319,44.5538693 C29.4406658,42.5087748 27.1921389,38.9549472 25.9629675,37.1019047 C25.2898082,32.814473 22.7178151,19.7756977 16.9216513,24.6271741 C8.18281958,31.9389926 26.1500533,38.4185857 26.1500533,38.4185857 C26.1500533,38.4185857 26.1430595,38.3562986 26.1308202,38.2628679 C27.6502369,41.6852004 29.2081199,44.2043693 29.8585491,45.204424 C28.333887,50.4573064 26.5591943,56.1098646 24.5169863,61.9786977 C24.3963422,62.0011903 24.3264036,62.0150319 24.3264036,62.0150319 C24.3701152,62.0461754 24.4208207,62.0738586 24.4750232,62.1015418 C24.1305754,63.0877549 23.7773853,64.0808888 23.4189499,65.0792133 C23.9627227,63.6812129 21.8278461,58.5563652 20.7070795,56.0441171 C20.7403004,56.0614191 20.761282,56.0735305 20.761282,56.0735305 C20.761282,56.0735305 21.6302694,31.5081732 12.0189534,37.3337513 C0.888220586,44.0815252 17.3989824,54.1443592 20.3224171,55.8261121 C21.5743185,61.2554747 23.4032137,65.0844039 23.4102075,65.0999757 C17.6804854,81.0212616 9.9819908,98.1986715 0,113.000519 L3.49518298,113.000519 C8.64091759,103.877183 17.7574179,86.1166959 25.6622314,62.3662621 C27.0330285,62.4839156 29.0909727,62.2935938 30.9635795,62.042715 C35.448394,63.3299827 51.5849842,67.4132509 49.1423776,58.729385 C45.8744951,47.1162932 32.5546833,59.1100287 30.1907576,61.3540961 C28.3793471,61.4544476 26.8879059,61.624007 25.859808,61.7676135 C27.7009424,56.2015651 29.4721382,50.3102395 31.1087021,44.1299707 C32.8711556,44.0642232 36.0271362,43.2839037 38.8351721,42.4897426 C38.7232703,42.6298887 38.6568286,42.7129382 38.6568286,42.7129382 C38.6568286,42.7129382 58.2134177,46.3913401 54.7234801,38.1486748 C51.0744322,29.5305564 42.5156925,38.2351847 39.630724,41.5450543 C35.8994982,42.2630866 32.8798979,43.0883913 31.2555732,43.5711166 C32.4270453,39.1141255 33.5250817,34.5066071 34.5287011,29.7641332 L34.5304495,29.7658634 C34.5304495,29.7658634 34.532198,29.7520218 34.532198,29.7468312 C34.6440998,29.2156603 34.5356949,29.7502916 34.6440998,29.2156603 C36.161768,28.437071 40.5294354,27.5806228 44.2659067,26.5061696 C44.2291889,26.5736473 44.2029619,26.6203627 44.2029619,26.6203627 C44.2029619,26.6203627 64.1074957,26.902385 59.2310248,19.3794823" id="Fill-4" fill="#E6E7E8" mask="url(#mask-4)"></path>
                </g>
                <mask id="mask-6" fill="white">
                    <use xlink:href="#path-5"></use>
                </mask>
                <g id="Clip-8"></g>
                <path d="M1,144 L96,144 C96,144 53.0726916,117 1,144" id="Fill-7" fill="#E6E7E8" mask="url(#mask-6)"></path>
            </g>
            <g id="Group-2" transform="translate(3.724000, 0.000000)">
                <g id="bike2">
                    <g id="Group-3" style="mix-blend-mode: multiply;" transform="translate(246.718281, 368.983268)">
                        <mask id="mask-8" fill="white">
                            <use xlink:href="#path-7"></use>
                        </mask>
                        <g id="Clip-2"></g>
                        <path d="M351.28246,5.63753789 C351.28246,13.1820542 272.644589,9.64991619 175.640489,9.64991619 C78.6363893,9.64991619 0,13.1820542 0,5.63753789 C0,-1.9084606 81.535618,0.301534239 178.539718,0.301534239 C275.543817,0.301534239 351.28246,-1.9084606 351.28246,5.63753789" id="Fill-1" fill="#EEEFEF" mask="url(#mask-8)"></path>
                    </g>
                    <path d="M493.786367,157.812604 C493.786367,157.812604 526.433816,173.536028 500.281469,196.42452 C489.02843,206.273893 456.029694,213.683527 432.320051,211.147443 C411.383648,208.907804 406.339642,215.789766 406.339642,215.789766 C406.339642,215.789766 407.77147,214.340152 417.395545,235.698989 C424.339761,251.109664 420.671259,260.840459 432.456416,286.75565 L424.095194,291.258644 C424.095194,291.258644 380.219904,222.121824 381.319714,207.149887 C382.419524,192.176468 493.786367,157.812604 493.786367,157.812604" id="Fill-4" fill="#58595B"></path>
                    <path d="M413.668643,283.019114 C413.668643,283.019114 413.852439,280.204372 418.887551,280.609019 C423.921181,281.015148 425.069904,284.019614 425.069904,284.019614 C425.069904,284.019614 426.684046,278.698433 429.604025,278.17669 L434.486469,285.873876 L436.454861,294.691622 C436.454861,294.691622 400.601363,305.870549 396.729796,305.322127 C392.856747,304.775186 392.333522,301.58396 395.557358,299.202027 C398.779711,296.820094 405.904758,294.076499 408.35932,292.834396 C412.777827,290.597721 419.470065,290.166394 413.668643,283.019114" id="Fill-6" fill="#6DCEF5"></path>
                    <path d="M393.470387,302.861933 C393.470387,302.861933 397.509446,303.718658 404.738248,302.332779 C411.968533,300.948382 435.418787,290.052559 435.418787,290.052559 C435.418787,290.052559 436.826899,291.724507 437.845186,294.358418 C438.863474,296.993811 437.951907,298.708743 437.951907,298.708743 C437.951907,298.708743 399.317758,307.310085 395.793031,306.78686 C392.268304,306.263635 392.951609,304.898507 393.470387,302.861933" id="Fill-8" fill="#FFFFFF"></path>
                    <path d="M325.491035,257.573639 C294.605949,257.573639 269.479301,282.700288 269.479301,313.585373 C269.479301,344.471941 294.605949,369.598589 325.491035,369.598589 C356.37612,369.598589 381.504251,344.471941 381.504251,313.585373 C381.504251,282.700288 356.37612,257.573639 325.491035,257.573639 M325.491035,376.444978 C290.830727,376.444978 262.632912,348.245681 262.632912,313.585373 C262.632912,278.926547 290.830727,250.72725 325.491035,250.72725 C360.151343,250.72725 388.349158,278.926547 388.349158,313.585373 C388.349158,348.245681 360.151343,376.444978 325.491035,376.444978" id="Fill-10" fill="#A6A8AB"></path>
                    <path d="M332.188757,313.586262 C332.188757,317.285892 329.190219,320.284429 325.49059,320.284429 C321.792443,320.284429 318.793906,317.285892 318.793906,313.586262 C318.793906,309.886633 321.792443,306.888096 325.49059,306.888096 C329.190219,306.888096 332.188757,309.886633 332.188757,313.586262" id="Fill-12" fill="#A6A8AB"></path>
                    <path d="M284.986172,300.202824 C284.986172,300.202824 294.86519,283.864277 314.243777,281.203687 C333.623845,278.544578 312.711158,276.644368 312.718569,273.224879 C312.724498,269.80539 329.276485,269.566752 342.109573,275.883988 C356.567179,283.003106 361.74162,295.009114 363.64183,294.629665 C365.540558,294.250216 357.815211,280.191328 341.095733,271.324669 C329.120851,264.973342 315.004157,264.485691 305.125139,267.90518 C295.246121,271.324669 300.94527,277.023817 302.464549,278.163647 C303.98531,279.303477 280.426854,292.603466 284.986172,300.202824" id="Fill-14" fill="#A6A8AB"></path>
                    <path d="M367.989043,326.969552 C367.989043,326.969552 358.110025,343.308099 338.731439,345.96869 C319.35137,348.627798 340.264057,350.528009 340.256646,353.947498 C340.250717,357.366987 323.69873,357.605625 310.865642,351.288389 C296.408036,344.169271 291.233595,332.163263 289.333385,332.542712 C287.434657,332.922161 295.160004,346.981048 311.879482,355.847708 C323.854364,362.199034 337.971058,362.686686 347.850076,359.267197 C357.729094,355.847708 352.029945,350.148559 350.510667,349.00873 C348.989906,347.8689 372.548362,334.568911 367.989043,326.969552" id="Fill-16" fill="#A6A8AB"></path>
                    <g id="Group-20" transform="translate(472.284050, 250.727250)">
                        <mask id="mask-10" fill="white">
                            <use xlink:href="#path-9"></use>
                        </mask>
                        <g id="Clip-19"></g>
                        <path d="M62.858123,6.84638913 C31.9730374,6.84638913 6.84638913,31.9730374 6.84638913,62.858123 C6.84638913,93.7446908 31.9730374,118.871339 62.858123,118.871339 C93.7432085,118.871339 118.871339,93.7446908 118.871339,62.858123 C118.871339,31.9730374 93.7432085,6.84638913 62.858123,6.84638913 M62.858123,125.717728 C28.1978148,125.717728 0,97.5184311 0,62.858123 C0,28.1992971 28.1978148,0 62.858123,0 C97.5184311,0 125.716246,28.1992971 125.716246,62.858123 C125.716246,97.5184311 97.5184311,125.717728 62.858123,125.717728" id="Fill-18" fill="#A6A8AB" mask="url(#mask-10)"></path>
                    </g>
                    <path d="M544.769362,313.586262 C544.769362,318.902997 540.459056,323.213302 535.142322,323.213302 C529.825587,323.213302 525.515282,318.902997 525.515282,313.586262 C525.515282,308.269528 529.825587,303.959223 535.142322,303.959223 C540.459056,303.959223 544.769362,308.269528 544.769362,313.586262" id="Fill-21" fill="#A6A8AB"></path>
                    <path d="M522.755382,355.087624 C522.755382,355.087624 506.416835,345.208606 503.756245,325.830019 C501.097136,306.44995 499.196926,327.362638 495.777437,327.355227 C492.357948,327.349298 492.11931,310.797311 498.436545,297.964222 C505.555664,283.506617 517.561672,278.332176 517.182223,276.431965 C516.802774,274.533237 502.743886,282.258585 493.877227,298.978063 C487.5259,310.952945 487.038249,325.069639 490.457738,334.948657 C493.877227,344.827674 499.576375,339.128526 500.716205,337.609247 C501.856034,336.088486 515.156024,359.646942 522.755382,355.087624" id="Fill-23" fill="#A6A8AB"></path>
                    <path d="M549.52211,272.084753 C549.52211,272.084753 565.860657,281.963771 568.521248,301.342357 C571.180356,320.722426 573.080567,299.809739 576.500056,299.81715 C579.919545,299.823079 580.158182,316.375065 573.840947,329.208154 C566.721829,343.66576 554.715821,348.840201 555.09527,350.740411 C555.474719,352.639139 569.533606,344.913792 578.400266,328.194314 C584.751592,316.219432 585.239244,302.102738 581.819755,292.22372 C578.400266,282.344702 572.701117,288.043851 571.561288,289.563129 C570.421458,291.08389 557.121469,267.525434 549.52211,272.084753" id="Fill-25" fill="#A6A8AB"></path>
                    <path d="M377.400568,238.403898 C380.996441,240.101044 389.03602,243.960753 393.478243,246.98597 C402.344902,253.024548 410.772824,260.864027 418.524851,270.289484 C427.880644,281.661101 436.278921,295.390935 443.501795,311.117323 L530.606126,311.115841 L500.361361,264.314642 C490.541632,249.120372 473.780651,239.834243 455.691599,239.565961 L377.400568,238.403898 Z M441.912852,316.056091 C440.940513,316.056091 440.060073,315.486917 439.661355,314.60203 C423.502157,278.78707 404.285133,260.400091 391.008859,251.281453 C376.67576,241.436527 366.005235,239.989877 365.898515,239.976537 C364.606017,239.81201 363.658876,238.670698 363.74188,237.369306 C363.823403,236.067914 367.288841,230.133092 368.57541,230.34505 C381.744964,232.507614 430.320384,233.896457 460.720782,234.575315 C476.601322,234.929567 493.316354,243.163317 502.097044,256.39957 L537.216841,312.245295 C537.843822,313.217633 537.728208,314.527919 536.841839,315.383162 C536.360116,315.845615 535.687187,316.056091 535.018704,316.056091 L441.912852,316.056091 Z" id="Fill-27" fill="#A6A8AB"></path>
                    <path d="M445.981555,316.258563 C445.493903,316.347496 444.976607,316.313405 444.480062,316.134056 C443.023037,315.606384 442.293783,314.026334 442.851099,312.604882 L485.622133,199.029527 C486.179449,197.606593 487.814341,196.881786 489.271366,197.407975 C490.728392,197.934164 491.457646,199.515696 490.898847,200.937148 L448.129296,314.512504 C447.760222,315.450751 446.925731,316.085143 445.981555,316.258563" id="Fill-29" fill="#A6A8AB"></path>
                    <path d="M373.272576,196.178026 L368.57541,188.759499 L342.357846,188.759499 C342.357846,193.86724 346.499178,198.007089 351.606919,198.007089 L363.037824,198.007089 L363.478045,198.702252 C366.921249,204.136082 368.287859,210.637114 367.30811,216.995851 C359.158846,269.828216 328.641352,306.237548 324.771267,311.202996 C324.5267,311.517227 324.342905,311.878889 324.264347,312.270196 C323.776695,314.689185 326.678888,316.232179 328.427912,314.543927 C357.792236,286.206783 371.691044,238.132355 376.711334,216.450393 C378.319546,209.503213 377.086336,202.203263 373.272576,196.178026" id="Fill-31" fill="#A6A8AB"></path>
                    <path d="M466.254218,208.969612 L503.083019,208.969612 C504.981747,208.969612 506.790059,208.151425 508.04402,206.725526 L515.422527,198.333179 C517.595467,195.862312 517.6177,192.16713 515.474405,189.669584 L513.875086,187.806429 C511.891872,185.494161 508.583549,184.839018 505.868116,186.22045 L491.712884,193.418126 C490.925824,193.818327 490.066134,194.056964 489.184212,194.119218 L465.7888,195.773379 C461.296181,196.090575 458.431044,200.710665 460.144494,204.875712 C461.162781,207.352507 463.575841,208.969612 466.254218,208.969612" id="Fill-33" fill="#6DCEF5"></path>
                    <path d="M358.501036,227.867069 L339.107627,227.867069 C328.324453,227.867069 319.554138,219.095272 319.554138,208.31358 C319.554138,197.530406 328.324453,188.758609 339.107627,188.758609 L355.460996,188.758609 C357.245592,188.758609 358.69076,190.205259 358.69076,191.988374 C358.69076,193.77297 357.245592,195.218138 355.460996,195.218138 L339.107627,195.218138 C331.887717,195.218138 326.013667,201.092189 326.013667,208.31358 C326.013667,215.53349 331.887717,221.407541 339.107627,221.407541 L358.501036,221.407541 C360.28415,221.407541 361.7308,222.85419 361.7308,224.637305 C361.7308,226.420419 360.28415,227.867069 358.501036,227.867069" id="Fill-35" fill="#6DCEF5"></path>
                    <path d="M464.853962,329.512899 C464.576786,329.443235 464.305539,329.330586 464.049115,329.17347 L418.368477,301.197989 C417.009278,300.364979 416.582398,298.587794 417.415407,297.227113 C418.248417,295.869396 420.021156,295.442516 421.384801,296.274043 L467.063957,324.251007 C468.424638,325.082534 468.851518,326.85972 468.018508,328.220401 C467.342615,329.323175 466.045669,329.812308 464.853962,329.512899" id="Fill-37" fill="#A6A8AB"></path>
                    <path d="M460.175917,312.724201 C460.175917,322.366064 452.358672,330.183309 442.71681,330.183309 C433.074947,330.183309 425.257702,322.366064 425.257702,312.724201 C425.257702,303.082339 433.074947,295.265094 442.71681,295.265094 C452.358672,295.265094 460.175917,303.082339 460.175917,312.724201" id="Fill-39" fill="#A6A8AB"></path>
                    <path d="M493.786367,157.812604 C493.786367,157.812604 524.840426,169.600726 505.555219,196.540133 C496.850122,208.69881 487.1549,207.687934 467.444295,213.806552 C451.191717,218.852039 436.453972,229.747862 436.453972,229.747862 C436.453972,229.747862 442.597787,232.169815 450.674421,254.161561 C456.501041,270.027279 455.371587,283.002661 465.278767,309.691573 L456.618137,313.586855 C456.618137,313.586855 409.290749,237.808192 411.454795,222.950387 C413.620323,208.094063 493.786367,157.812604 493.786367,157.812604" id="Fill-41" fill="#6D6E70"></path>
                    <path d="M450.915876,311.873257 C450.915876,311.873257 449.970217,309.215631 454.751869,307.592596 C459.533522,305.969562 461.780572,308.272937 461.780572,308.272937 C461.780572,308.272937 461.153592,302.748691 463.62594,301.112316 L471.160081,306.245255 L476.461993,313.560027 C476.461993,313.560027 447.973663,338.031533 444.201404,339.06316 C440.430628,340.094787 438.68457,337.373426 440.700393,333.90947 C442.716217,330.444032 448.169316,325.103582 449.930197,322.989931 C453.100673,319.185064 459.075515,316.136131 450.915876,311.873257" id="Fill-43" fill="#6DCEF5"></path>
                    <path d="M440.234827,338.095861 C440.234827,338.095861 444.282778,337.282121 450.371752,333.145236 C456.460725,329.008351 473.672301,309.711286 473.672301,309.711286 C473.672301,309.711286 475.627353,310.688071 477.607603,312.703895 C479.586371,314.718236 479.429256,316.655502 479.429256,316.655502 C479.429256,316.655502 447.365803,339.862671 443.922598,340.780167 C440.479394,341.696181 440.566845,340.170974 440.234827,338.095861" id="Fill-45" fill="#FFFFFF"></path>
                    <path d="M414.758818,116.193851 C417.523165,111.545599 424.170936,106.686871 435.815282,111.241743 C447.458145,115.796615 418.359139,177.374097 409.191588,182.172054 C400.024037,186.970011 348.965893,195.218583 348.965893,195.218583 L344.31023,185.237292 L401.768614,165.270262 C401.768614,165.270262 407.758278,127.962703 414.758818,116.193851" id="Fill-47" fill="#68C4E9"></path>
                    <path d="M493.786367,157.812604 C493.786367,157.812604 465.518887,126.779296 454.934331,118.598906 C444.349775,110.419999 424.796286,102.248502 414.269537,112.833058 C403.742787,123.417614 401.334174,146.383181 414.269537,149.873817 C428.728624,153.775028 441.874462,164.447036 450.103766,173.304802 C454.584526,178.127956 461.871136,179.045452 467.352397,175.399183 L493.786367,157.812604 Z" id="Fill-49" fill="#6DCEF5"></path>
                    <path d="M478.361907,168.074777 L478.361907,167.784261 C478.361907,167.784261 466.247696,170.781317 456.500596,167.784261 C446.754979,164.788688 441.786566,133.295891 441.786566,133.295891 L423.178736,127.742 L417.470694,150.864683 C430.65507,155.36323 442.487658,165.105884 450.103321,173.30406 C454.584082,178.127215 461.872173,179.046193 467.353435,175.399924 L478.361907,168.074777 Z" id="Fill-51" fill="#68C4E9"></path>
                    <path d="M421.254217,116.193851 C424.018563,111.545599 430.666335,106.686871 442.31068,111.241743 C453.953544,115.796615 424.854537,177.374097 415.686987,182.172054 C406.519436,186.970011 355.461292,195.218583 355.461292,195.218583 L350.805629,185.237292 L408.264013,165.270262 C408.264013,165.270262 414.253677,127.962703 421.254217,116.193851" id="Fill-53" fill="#6DCEF5"></path>
                    <path d="M348.212035,185.502313 C348.212035,185.502313 344.602821,180.256725 339.191224,180.791808 C333.778145,181.325408 324.945577,186.222674 327.320098,192.723705 L348.212035,185.502313 Z" id="Fill-55" fill="#BBBDBF"></path>
                    <path d="M350.805481,185.237736 C350.805481,185.237736 342.226373,184.515893 336.813293,185.237736 C331.401696,185.959579 329.888346,191.074731 329.888346,191.074731 C329.888346,191.074731 344.879552,202.312948 355.461144,195.219027 L350.805481,185.237736 Z" id="Fill-57" fill="#D0D2D3"></path>
                    <path d="M421.177586,112.747386 L405.391909,105.269569 L400.482785,122.556739 C400.482785,122.556739 407.48629,129.168937 410.011999,132.056308 C412.537707,134.942196 421.878678,117.189609 421.177586,112.747386" id="Fill-59" fill="#D0D2D3"></path>
                    <path d="M402.794609,114.417555 L400.483823,122.557925 C400.483823,122.557925 402.957654,125.331164 404.727428,126.639967 C407.192365,120.340519 405.942851,116.89435 405.942851,116.89435 L402.794609,114.417555 Z" id="Fill-61" fill="#CAC4B6"></path>
                    <path d="M408.933385,104.26892 C408.933385,104.26892 405.900756,135.834346 384.009801,135.834346 C384.009801,135.834346 376.383762,123.69642 376.029511,117.198354 C375.676742,110.700287 369.291324,95.110263 378.476662,85.6833233 C387.661999,76.2563835 416.572763,80.8364533 408.933385,104.26892" id="Fill-63" fill="#D0D2D3"></path>
                    <path d="M375.245119,111.968477 C375.245119,111.968477 373.542044,118.047075 371.157147,124.024881 L378.510456,124.127154 C378.510456,124.127154 376.441273,113.274316 375.245119,111.968477" id="Fill-65" fill="#D0D2D3"></path>
                    <path d="M369.708422,101.4607 C369.708422,101.4607 365.605628,104.542242 367.230145,108.464205 C368.853179,112.386168 378.085948,112.927179 378.085948,112.927179 C378.085948,112.927179 373.928311,110.222122 374.819128,107.334751 C374.819128,107.334751 382.726789,110.672718 385.8943,111.050685 C385.8943,111.050685 384.730754,109.218657 384.730754,107.19394 C384.730754,107.19394 391.227339,114.370865 394.294059,115.45437 C394.294059,115.45437 393.0149,107.15392 396.541109,106.793739 C400.067318,106.432077 402.770893,112.292788 400.427498,119.285917 C400.427498,119.285917 404.939386,116.703884 408.186937,113.733509 C411.434488,110.763133 417.594608,111.050685 417.594608,111.050685 C417.594608,111.050685 413.330252,109.156403 410.84901,105.178116 C408.367768,101.199829 380.306318,94.3237954 369.708422,101.4607" id="Fill-67" fill="#58595B"></path>
                    <polygon id="Fill-69" fill="#A6A8AB" points="401.781658 121.451297 393.144743 121.451297 385.893707 103.65276 387.899155 102.836055 394.601768 119.285769 400.426906 119.285769 407.959564 103.796536 409.907205 104.742194"></polygon>
                    <path d="M369.708422,101.4607 C369.708422,101.4607 368.783515,105.37377 387.378005,105.270014 C392.782191,105.238887 404.350943,102.778397 410.84901,105.178116 C410.84901,105.178116 415.672164,102.326319 420.95629,97.5194687 C427.878273,91.2215022 435.972694,91.2215022 418.38908,82.1073115 C408.271424,76.8632057 397.039136,75.4150736 382.898726,78.4877223 C367.473229,81.8375468 369.708422,101.4607 369.708422,101.4607" id="Fill-71" fill="#68C4E9"></path>
                    <path d="M383.433513,91.0817285 C391.227042,89.5328052 405.84621,95.5461849 410.203946,95.5461849 C414.561683,95.5461849 411.505338,90.4947681 409.90602,89.5328052 C409.90602,89.5328052 417.892238,90.2324146 423.564707,95.4157492 L423.564707,95.4157492 C429.505457,91.0787641 433.765367,90.0782634 418.390265,82.1068668 C408.271127,76.862761 397.040322,75.4161111 382.89843,78.4872777 C367.472933,81.8385844 369.708125,101.460256 369.708125,101.460256 C369.708125,101.460256 369.264941,103.378252 375.374665,104.492884 C376.221014,99.5037209 378.327254,92.0970514 383.433513,91.0817285" id="Fill-73" fill="#6DCEF5"></path>
                    <path d="M393.145039,121.451297 C393.145039,121.451297 392.523988,128.604506 388.357458,135.381231 C388.357458,135.381231 392.309065,135.301191 394.834774,133.857505 C397.360482,132.41382 401.781954,121.451297 401.781954,121.451297 L393.145039,121.451297 Z" id="Fill-75" fill="#A6A8AB"></path>
                    <path d="M382.727233,133.688087 C382.727233,133.688087 390.682325,133.092233 392.938269,134.647086 C392.938269,134.647086 389.222335,138.90996 385.894744,138.367466 C382.565671,137.826454 380.542436,135.684642 382.727233,133.688087" id="Fill-77" fill="#6DCEF5"></path>
                    <path d="M388.189226,81.8874978 C388.429346,82.7857251 386.495045,84.0841526 383.868545,84.7882086 C381.242046,85.4907825 378.91792,85.3321846 378.677799,84.4339573 C378.437679,83.53573 380.371981,82.2373025 382.99848,81.5347286 C385.62498,80.8306726 387.949106,80.9892705 388.189226,81.8874978" id="Fill-79" fill="#ABE0F9"></path>
                    <path d="M402.823661,81.4769219 C402.823661,82.4062759 400.619595,83.1607275 397.899715,83.1607275 C395.181318,83.1607275 392.977252,82.4062759 392.977252,81.4769219 C392.977252,80.547568 395.181318,79.7931163 397.899715,79.7931163 C400.619595,79.7931163 402.823661,80.547568 402.823661,81.4769219" id="Fill-81" fill="#ABE0F9"></path>
                    <path d="M416.848605,85.7211199 C416.586252,86.6134183 414.259161,86.7142095 411.650448,85.9464179 C409.041735,85.177144 407.140043,83.8312853 407.403879,82.9389869 C407.666232,82.0466885 409.993323,81.9473796 412.602035,82.7151712 C415.209266,83.4829629 417.110959,84.8288216 416.848605,85.7211199" id="Fill-83" fill="#ABE0F9"></path>
                    <g id="Group-87" style="mix-blend-mode: multiply;" transform="translate(198.157812, 457.655218)">
                        <mask id="mask-12" fill="white">
                            <use xlink:href="#path-11"></use>
                        </mask>
                        <g id="Clip-86"></g>
                        <path d="M7.43544371,19.7795583 C32.4820519,19.1614713 65.0613187,18.7286621 96.0353376,19.4267892 C104.741917,19.6224427 106.590249,7.31406093 98.2275458,4.88617927 C93.6578516,3.55958947 89.159304,2.56946435 85.0461346,2.16185296 C64.2490603,0.0985982168 49.552817,-0.580260025 28.6801493,0.528442955 C22.3214117,0.866389853 13.8327192,2.92075126 5.10242434,5.61395088 C-2.9312256,8.09222813 -0.970244261,19.9870696 7.43544371,19.7795583" id="Fill-85" fill="#EEEFEF" mask="url(#mask-12)"></path>
                    </g>
                    <g id="Group-90" transform="translate(133.756224, 0.000000)">
                        <mask id="mask-14" fill="white">
                            <use xlink:href="#path-13"></use>
                        </mask>
                        <g id="Clip-89"></g>
                        <path d="M0.0236128021,16.5822242 C-0.220954032,11.9399011 1.31462924,4.37908033 10.2924554,1.07816918 C22.3918437,-3.36850053 32.4057438,6.61871964 37.4853229,18.3920188 C43.1933645,31.619379 54.5620168,36.8872003 64.4262124,35.5354127 C90.1368566,32.0136503 116.419639,52.1022218 92.9175074,60.3419008 C73.433683,67.1734677 73.6411943,89.8707521 60.1485161,76.3024806 C46.6573202,62.7342091 40.0317824,47.010785 29.5154085,44.740019 C6.04292136,39.6752622 0.859586707,32.4790684 0.0236128021,16.5822242" id="Fill-88" fill="#58595B" mask="url(#mask-14)"></path>
                    </g>
                    <path d="M134.730535,24.3256549 C134.730535,24.3256549 137.729072,18.0573328 142.186118,19.6818495 C146.643163,21.3063661 152.173338,30.2723345 144.774079,34.1246327 C137.374821,37.9754486 135.563544,30.2990145 134.730535,24.3256549" id="Fill-91" fill="#6DCEF5"></path>
                    <path d="M162.173157,88.8158538 C162.173157,88.8158538 139.10087,82.1250982 129.241121,68.2722398 L115.317116,79.9818034 C115.317116,79.9818034 129.546459,95.7704453 129.675412,108.599087 C129.675412,108.599087 149.603904,87.6819531 162.173157,88.8158538" id="Fill-93" fill="#D0D2D3"></path>
                    <path d="M120.278265,75.8099378 L115.317264,79.9823962 C115.317264,79.9823962 118.695251,83.7339033 122.174029,89.0610136 L122.175511,89.0595313 C132.468069,79.8697473 131.830713,71.4462726 131.830713,71.4462726 L131.830713,71.4447904 L120.278265,75.8099378 Z" id="Fill-95" fill="#BBBDBF"></path>
                    <path d="M163.609283,108.025763 C163.850885,103.700636 161.12063,95.825584 148.42687,97.0128448 C141.021683,97.705043 128.691068,115.909709 120.691509,138.515095 C115.717168,152.572501 97.8608247,163.758839 97.8608247,163.758839 C97.8608247,163.758839 49.4795761,174.140331 24.7338591,167.926851 L21.7012304,178.627021 C21.7012304,178.627021 77.9575311,188.986279 100.385051,182.984757 C122.812571,176.983235 162.638427,125.376669 163.609283,108.025763" id="Fill-97" fill="#D0D2D3"></path>
                    <path d="M163.609283,108.025763 C163.850885,103.700636 161.12063,95.825584 148.42687,97.0128448 C141.23957,97.6842919 129.412911,114.854366 121.408905,136.531881 C121.416316,136.548185 127.548274,149.250838 127.081374,164.18572 C145.401653,145.850618 162.968963,119.47742 163.609283,108.025763" id="Fill-99" fill="#BBBDBF"></path>
                    <g id="Group-103" transform="translate(0.000000, 155.154533)">
                        <mask id="mask-16" fill="white">
                            <use xlink:href="#path-15"></use>
                        </mask>
                        <g id="Clip-102"></g>
                        <path d="M24.7335627,12.7723176 C24.7335627,12.7723176 19.9845194,8.03809661 19.4627769,4.60230315 C18.9425165,1.16650969 10.6035286,0 10.6035286,0 L9.48148559,3.96050049 L2.56246753,1.99951914 L-0.000296444647,11.0455276 C-0.000296444647,11.0455276 0.969077552,20.2886717 3.81939283,22.8899734 C6.66970812,25.4912752 21.7024162,23.4724872 21.7024162,23.4724872 L24.7335627,12.7723176 Z" id="Fill-101" fill="#D0D2D3" mask="url(#mask-16)"></path>
                    </g>
                    <path d="M43.2441593,169.90058 L41.9412851,181.756883 L21.7015268,178.626428 L24.7341556,167.926258 C24.7341556,167.926258 40.5302086,169.899097 43.2441593,169.90058" id="Fill-104" fill="#A6A8AB"></path>
                    <path d="M284.575152,434.594078 C284.575152,434.594078 262.171347,400.402152 255.37239,379.517627 C244.6989,346.729367 215.090009,324.705012 209.306374,321.089869 C208.503009,317.652594 212.662127,258.972858 225.849467,226.964247 C233.854955,207.538229 226.45125,184.655667 206.128487,180.148226 C188.854657,176.316679 165.517053,191.958581 167.541769,227.903977 C167.541769,227.903977 169.390102,298.164323 187.665914,325.838913 C189.087366,337.861225 274.654632,439.73591 274.654632,439.73591 L284.575152,434.594078 Z" id="Fill-106" fill="#6D6E70"></path>
                    <path d="M275.505428,433.022032 C272.349774,430.600079 265.827992,429.144536 265.827992,429.144536 C271.264787,435.700409 274.654632,439.735021 274.654632,439.735021 L284.575152,434.594671 C284.575152,434.594671 282.64085,431.6406 279.737175,426.944917 L275.505428,433.022032 Z" id="Fill-108" fill="#58595B"></path>
                    <path d="M255.372093,379.517034 C253.328107,373.236854 250.584512,367.35391 247.451092,361.917115 C243.334958,361.4265 239.559736,363.504577 234.406045,363.763966 C228.069541,364.082644 192.518417,334.676817 192.518417,334.676817 L192.577706,335.383837 C204.447349,353.794532 235.150121,391.865436 255.453615,416.580026 L258.126064,386.815501 C257.052934,384.264595 256.119134,381.810034 255.372093,379.517034" id="Fill-110" fill="#58595B"></path>
                    <path d="M222.298357,236.850676 C223.401131,233.358558 224.583945,230.036896 225.849764,226.964247 C233.853769,207.538229 226.451546,184.655667 206.127301,180.148226 C188.854954,176.316679 165.515867,191.958581 167.540584,227.903977 C167.540584,227.903977 168.286142,256.141812 173.487263,283.865315 L173.487263,283.865315 C173.487263,283.865315 181.980402,246.314672 222.298357,236.850676" id="Fill-112" fill="#58595B"></path>
                    <path d="M261.602915,435.055939 C264.368743,432.467977 267.597026,432.239715 271.679068,433.905734 L276.58671,436.951702 L283.436063,431.974397 L293.488501,444.439894 L265.787231,466.246362 C260.51941,469.905972 247.314283,463.158891 247.314283,463.158891 L256.950216,455.916749 L270.51997,440.095498 L261.602915,435.055939 Z" id="Fill-114" fill="#6DCEF5"></path>
                    <path d="M289.939466,440.037988 C289.939466,440.037988 265.313809,463.452668 261.706078,464.859298 C258.719398,466.022843 254.721842,465.255051 250.252939,462.274301 C248.398677,461.036644 245.97376,461.058877 244.109123,462.283194 C244.109123,462.283194 249.956494,469.351916 253.835472,472.024365 C257.71445,474.696813 261.977324,475.042171 269.896843,469.405277 C275.263974,465.584105 288.083722,455.424947 295.791283,449.272238 C298.493376,447.115603 297.77598,442.830496 294.519536,441.669915 L289.939466,440.037988 Z" id="Fill-116" fill="#FFFFFF"></path>
                    <path d="M278.348184,457.177231 L278.348184,457.177231 C277.49887,456.270111 277.546301,454.845694 278.453422,453.99638 L287.13925,445.870832 C288.04637,445.021519 289.470787,445.06895 290.320101,445.97607 C291.169415,446.884673 291.121984,448.30909 290.214863,449.158404 L281.529035,457.282469 C280.621914,458.131783 279.197498,458.084352 278.348184,457.177231" id="Fill-118" fill="#6DCEF5"></path>
                    <path d="M226.797201,372.693027 C226.797201,372.693027 223.911312,372.138675 220.174627,373.917343 C225.673675,376.521609 228.980515,378.009761 228.980515,378.009761 L234.890139,369.199426 C234.890139,369.199426 230.55019,366.374309 224.345603,361.964695 L226.797201,372.693027 Z" id="Fill-120" fill="#384BA0"></path>
                    <path d="M217.486467,185.563084 C217.486467,185.563084 199.010555,170.988383 189.08707,146.957098 C178.44026,121.17086 180.977827,95.0866957 162.442625,87.6311128 C144.03193,80.2244433 130.863859,92.8826297 125.773904,109.805172 C118.848957,132.832993 123.165192,143.245611 136.017549,148.200683 C141.71818,150.397338 161.725229,164.493281 171.485669,201.541451 L217.486467,185.563084 Z" id="Fill-122" fill="#6DCEF5"></path>
                    <path d="M159.759949,202.139972 C159.759949,202.139972 101.207685,275.38848 113.398971,303.430662 C125.591739,331.474325 228.981257,378.010206 228.981257,378.010206 L234.890881,369.198389 C234.890881,369.198389 200.805675,347.013954 187.040268,329.898722 C165.429453,303.030461 135.768684,294.555109 135.768684,294.555109 C135.768684,294.555109 174.219037,254.979749 204.936631,239.016204 C223.581517,229.325429 232.674957,207.062436 220.044933,190.513413 C209.312154,176.448597 181.387068,173.358162 159.759949,202.139972" id="Fill-124" fill="#6D6E70"></path>
                    <path d="M231.828459,373.764526 C186.432408,353.987221 158.01226,334.921384 142.004249,322.215766 C125.898411,309.433073 118.900835,300.449318 117.565352,298.639523 C118.682948,289.085112 125.209177,276.050441 135.532862,262.777132 C146.061094,249.242952 158.831929,237.677164 170.569655,231.047179 C193.229884,218.248182 207.245787,189.107673 210.093138,182.759311 C209.396493,182.445079 208.680579,182.15901 207.948361,181.898139 C205.095081,188.153121 191.117716,216.798567 169.437237,229.044696 C144.197939,243.299237 117.347465,277.870611 115.229368,298.839623 C115.202688,299.107906 115.270871,299.379153 115.42354,299.602968 C115.693304,299.99724 122.232873,309.440484 140.436057,323.909947 C156.516697,336.691158 185.031707,355.847411 230.525585,375.706238 L231.828459,373.764526 Z" id="Fill-126" fill="#6DCEF5"></path>
                    <path d="M149.1665,321.287153 C132.460362,308.623038 124.792821,299.734145 123.279471,297.894706 C125.688084,278.117401 155.213971,247.73479 180.319868,233.55436 C200.657453,222.06713 212.275118,196.483957 216.171883,186.514523 C215.555278,186.007603 214.910511,185.52588 214.240546,185.070838 C210.640226,194.293231 199.049241,220.334411 179.188931,231.550394 C166.641912,238.636903 152.554862,250.091525 141.504888,262.192395 C129.224668,275.642089 121.920272,288.404031 120.937558,298.127415 C120.907914,298.419413 120.990918,298.711411 121.170267,298.94412 C121.469676,299.333945 128.728124,308.666022 147.654632,323.028766 C163.619659,335.142976 191.018555,353.049715 233.072193,371.911006 L234.372102,369.970775 C192.394058,351.176185 165.067791,333.340593 149.1665,321.287153" id="Fill-128" fill="#6DCEF5"></path>
                    <path d="M219.796957,381.426731 L219.796957,381.426731 C219.328574,377.667812 222.315254,374.37283 226.102334,374.472139 L231.263436,374.607021 L231.260471,366.13908 L247.25366,365.329786 L248.623234,400.557786 C248.489834,406.971366 235.269885,413.691766 235.269885,413.691766 L235.071267,401.639809 L229.797517,379.495394 L219.796957,381.426731 Z" id="Fill-130" fill="#6DCEF5"></path>
                    <path d="M241.606834,365.615707 C241.606834,365.615707 246.083148,399.300712 245.101916,403.04629 C244.288176,406.145619 241.319283,408.929234 236.281206,410.793871 C234.189789,411.567592 232.783159,413.543395 232.677921,415.769695 C232.677921,415.769695 241.833614,415.191628 246.275837,413.623435 C250.71806,412.055243 253.501676,408.810657 253.593573,399.088754 C253.655827,392.501754 252.966593,376.158761 252.517479,366.306423 C252.358881,362.852843 248.47101,360.915577 245.61773,362.867665 L241.606834,365.615707 Z" id="Fill-132" fill="#FFFFFF"></path>
                    <path d="M248.664588,385.06544 L248.664588,385.06544 C247.431379,385.219592 246.306371,384.343598 246.15222,383.110388 L244.680372,371.308927 C244.527703,370.075717 245.402215,368.950709 246.635425,368.796558 C247.870117,368.642407 248.993642,369.518401 249.147793,370.751611 L250.619641,382.553072 C250.773792,383.786282 249.897798,384.911289 248.664588,385.06544" id="Fill-134" fill="#6DCEF5"></path>
                    <path d="M145.346959,83.9341516 C141.269363,85.3956237 135.081081,90.9791587 141.118176,102.207 C144.639938,108.756944 166.210733,113.022783 190.147156,111.583544 C205.031642,110.689763 222.290649,122.777294 222.290649,122.777294 C222.290649,122.777294 250.700422,163.290901 254.616456,188.503519 L265.65309,187.126533 C265.65309,187.126533 253.278008,131.279326 239.013092,112.962011 C224.749657,94.6446967 161.704774,78.0689943 145.346959,83.9341516" id="Fill-136" fill="#D0D2D3"></path>
                    <path d="M254.616752,188.503222 C254.616752,188.503222 252.107348,194.721149 249.145866,196.539837 C246.184384,198.358525 248.357323,206.492966 248.357323,206.492966 L252.442331,205.983081 L253.331665,213.118503 L262.66226,211.954958 C262.66226,211.954958 270.796701,207.46234 272.083271,203.824964 C273.368358,200.186106 265.653386,187.127719 265.653386,187.127719 L254.616752,188.503222 Z" id="Fill-138" fill="#D0D2D3"></path>
                    <path d="M249.223683,170.68601 L260.651624,167.268003 L265.652645,187.12683 L254.617493,188.503815 C254.617493,188.503815 250.279026,173.185038 249.223683,170.68601" id="Fill-140" fill="#A6A8AB"></path>
                    <path d="M169.988624,102.478839 C169.988624,102.478839 167.981693,106.405249 167.418448,111.229885 C167.418448,111.229885 183.9067,113.727432 186.917095,111.741252 L194.740269,89.9066219 L177.651718,85.4199322 C177.651718,85.4199322 171.169955,99.6122197 169.988624,102.478839" id="Fill-142" fill="#A6A8AB"></path>
                    <path d="M100.290189,91.2013439 C100.290189,91.2013439 127.033942,84.3386503 133.533491,66.123609 C140.03304,47.9100499 139.002895,30.1322644 123.211289,23.8698712 C107.419682,17.607478 92.3943854,33.2686487 92.6537745,52.445653 C92.9146458,71.621175 100.290189,91.2013439 100.290189,91.2013439" id="Fill-144" fill="#D0D2D3"></path>
                    <path d="M92.985496,53.8196739 C92.985496,53.8196739 93.264154,50.088918 94.1653457,46.5404756 C94.1653457,46.5404756 97.8249549,60.1191227 113.517252,63.3978005 L114.963902,58.8844307 C114.963902,58.8844307 117.526666,63.0820869 121.261869,62.6463133 L113.583952,52.220355 L92.2888511,35.9914928 C92.2888511,35.9914928 90.0729274,50.3720227 92.985496,53.8196739" id="Fill-146" fill="#BBBDBF"></path>
                    <path d="M97.5544491,77.3676062 C97.5544491,77.3676062 97.8331071,76.4678967 99.611775,77.4891485 C102.700728,79.2618875 107.316371,76.5242212 107.510543,77.1763994 C107.704714,77.8300599 105.213097,79.6146567 102.539166,80.300926 C99.9067374,80.9753376 98.3474386,79.7510212 98.3474386,79.7510212 C98.3474386,79.7510212 97.0401177,78.8394539 97.5544491,77.3676062" id="Fill-148" fill="#FFFFFF"></path>
                    <path d="M93.1762582,57.8311629 C93.1762582,57.8311629 93.3155871,67.6998052 88.3916415,73.1351178 L96.9989119,73.2640712 C96.9989119,73.2640712 94.5754769,59.4882885 93.1762582,57.8311629" id="Fill-150" fill="#D0D2D3"></path>
                    <path d="M94.0841199,41.9528465 C94.0841199,41.9528465 92.206143,48.6080288 92.9857925,53.8195257 C92.9857925,53.8195257 79.8458835,48.1440929 83.5899794,35.8757312 C87.3355575,23.6058873 101.572312,16.9729383 115.416277,19.6453868 C115.416277,19.6453868 134.167883,15.9294531 143.670416,29.3821112 C153.057336,42.6687603 138.322555,73.1862545 127.065069,76.2737255 C127.065069,76.2737255 138.408524,62.0236313 133.970747,55.2558 C128.347192,46.6811386 121.262165,62.6461651 121.262165,62.6461651 C121.262165,62.6461651 117.319451,62.7706718 114.857479,56.9351589 L113.04472,62.6105917 C113.04472,62.6105917 98.9161676,60.2701612 94.0841199,41.9528465" id="Fill-152" fill="#58595B"></path>
                    <path d="M126.640264,71.2003718 C125.998461,71.1321895 125.482648,70.7127204 125.109127,69.9508576 C123.779573,67.2383891 125.762788,60.1444687 127.747485,56.6864419 C128.469327,55.4265521 129.133363,54.7669628 129.720324,54.7224961 C131.97775,54.562416 133.006413,56.9902976 133.049397,57.092571 C133.110168,57.2407934 133.040504,57.4082846 132.895246,57.4690557 C132.747024,57.5298269 132.581015,57.4601624 132.518761,57.3134223 C132.509868,57.2926712 131.601265,55.1641986 129.763308,55.2961165 C129.626944,55.306492 129.115577,55.4576788 128.245512,56.972511 C126.360124,60.2600821 124.434716,67.2680336 125.626423,69.6973974 C125.915457,70.2902867 126.277119,70.5926603 126.732162,70.6311981 C128.110629,70.7379181 130.076057,68.379701 130.719342,67.4622048 C130.809758,67.3317691 130.989107,67.3006425 131.119543,67.3910581 C131.248496,67.4829559 131.281105,67.6623049 131.190689,67.7927406 C131.088416,67.9379985 128.672392,71.3574875 126.687695,71.2048185 C126.671391,71.2033362 126.656568,71.201854 126.640264,71.2003718" id="Fill-154" fill="#384BA0"></path>
                    <path d="M140.088031,103.122569 C138.70067,103.122569 137.458567,102.792033 136.361721,102.130962 C127.612158,96.8498002 131.796474,72.3797768 131.978787,71.3407383 L133.177906,71.551214 C133.134921,71.7972631 128.950605,96.2361598 136.990184,101.088959 C140.271826,103.070691 145.293599,101.472854 151.919137,96.3488088 C157.891014,91.7316834 164.153407,92.1363303 164.415761,92.1570815 L164.326827,93.3695401 C164.266056,93.3650934 158.251194,92.9900909 152.664695,97.3107716 C147.663674,101.179374 143.452677,103.122569 140.088031,103.122569" id="Fill-156" fill="#58595B"></path>
                    <path d="M115.416425,19.6452385 C115.416425,19.6452385 123.325568,39.7338101 122.491076,55.9982456 L134.731276,52.8989168 C134.731276,52.8989168 140.36076,33.3928591 131.837976,19.6452385 C128.875012,14.8635864 115.416425,19.6452385 115.416425,19.6452385" id="Fill-158" fill="#6DCEF5"></path>
                    <path d="M142.234142,61.0253539 C142.234142,68.4038612 136.253371,74.384632 128.874864,74.384632 C121.496356,74.384632 115.514103,68.4038612 115.514103,61.0253539 C115.514103,53.6468467 121.496356,47.6660759 128.874864,47.6660759 C136.253371,47.6660759 142.234142,53.6468467 142.234142,61.0253539" id="Fill-160" fill="#6DCEF5"></path>
                    <path d="M137.001597,61.0253539 C137.001597,65.5135259 133.362739,69.152384 128.874567,69.152384 C124.386395,69.152384 120.747537,65.5135259 120.747537,61.0253539 C120.747537,56.537182 124.386395,52.8983239 128.874567,52.8983239 C133.362739,52.8983239 137.001597,56.537182 137.001597,61.0253539" id="Fill-162" fill="#FFFFFF"></path>
                    <path d="M198.855069,92.1972497 L195.853567,105.767003 C195.570463,107.049127 194.30168,107.85842 193.019556,107.573834 L164.689824,101.308476 C163.409183,101.025371 162.599889,99.7565882 162.882994,98.4744651 L165.884496,84.9047114 C166.1676,83.6225883 167.436383,82.8132944 168.718506,83.096399 L197.046757,89.3632389 C198.32888,89.6463435 199.138174,90.9151266 198.855069,92.1972497" id="Fill-164" fill="#6DCEF5"></path>
                    <path d="M196.322691,92.6391005 L193.743622,104.298268 C193.500538,105.39956 192.409622,106.094723 191.30833,105.851638 L166.96726,100.468204 C165.865968,100.223637 165.170805,99.1342027 165.415372,98.0329108 L167.992958,86.3737428 C168.237525,85.272451 169.326959,84.5758061 170.428251,84.8203729 L194.769321,90.2038077 C195.870613,90.4468923 196.565776,91.5378086 196.322691,92.6391005" id="Fill-166" fill="#58595B"></path>
                </g>
                <g id="Group-9-Copy" transform="translate(694.276000, 348.664222) scale(-1, 1) translate(-694.276000, -348.664222) translate(585.276000, 219.664222)">
                    <g id="Group-3">
                        <mask id="mask-18" fill="white">
                            <use xlink:href="#path-17"></use>
                        </mask>
                        <g id="Clip-2"></g>
                        <path d="M93.6153061,258 L99.9420713,258 C97.8134691,234.016218 92.167235,190.363806 77.2701266,137.577086 C79.9549622,136.080627 83.5223132,133.153044 86.6701585,130.346795 C96.5829195,127.151654 131.579005,114.635536 116.110126,101.438078 C95.4269486,83.788578 85.9119411,122.867613 84.3706466,130.023237 C81.145115,132.471704 78.6032221,134.652614 76.884803,136.205073 C73.2677329,123.489842 69.1161816,110.258161 64.3493555,96.6469216 C67.5282754,94.3197885 72.3821101,88.9188486 76.5740582,83.9254682 C76.5398762,84.3268053 76.524339,84.5663631 76.524339,84.5663631 C76.524339,84.5663631 117.331353,67.0195308 100.482767,55.9532041 C82.869749,44.3859839 78.0159143,71.3657941 76.8537285,81.1658866 C70.8532454,87.1672765 66.313263,92.4873267 63.9174202,95.4149099 C60.4650448,85.6148174 56.6863874,75.6218342 52.5628031,65.4919608 L52.569018,65.495072 C52.569018,65.495072 52.5534808,65.4670717 52.5472659,65.4546272 C52.0873635,64.322172 52.5565882,65.4577383 52.0873635,64.322172 C53.9083284,60.9683626 60.9063025,53.9091849 66.4624206,47.2326774 C66.4779578,47.4069013 66.4903876,47.5251246 66.4903876,47.5251246 C66.4903876,47.5251246 103.65858,23.1897838 85.1537236,15.2034862 C65.1386475,6.56384911 65.6948808,36.2130178 66.2884034,45.0797682 C57.2457281,54.0834087 51.4316919,61.6341467 51.1364843,62.0199281 C49.7878516,58.7563417 41.4070628,34.5610022 41.4070628,34.5610022 C38.7533017,15.2905981 40.1236866,-4.47758844 28.7007056,0.895351161 C8.22883453,10.5243309 33.2717625,30.8711896 39.2629233,35.3947879 C41.5624352,40.7459495 45.5430768,50.2940396 50.3440849,62.993715 C46.5592125,59.9883533 38.9335338,56.4105418 33.0418113,53.8780734 C29.1357484,48.0291294 9.00258922,19.2386354 1.62861379,35.8583478 C-7.44202856,56.3109853 23.9556317,55.5425336 31.9169149,55.0323066 C40.6519528,60.3399122 48.0197133,63.6190543 51.058798,64.8852884 C54.5577851,74.2124876 58.4545256,85.1357018 62.4320598,97.2629274 C62.149282,97.6207085 62.0032319,97.8135992 62.0032319,97.8135992 C62.1710341,97.8011547 62.3636959,97.7451541 62.5687875,97.6735979 C62.6868706,98.0344902 62.8049536,98.4016048 62.9261441,98.7656082 C59.218958,95.6949126 50.580251,91.8557652 45.9719047,89.923747 C39.3219648,82.7432348 18.1260582,61.5563681 13.5239269,77.8711888 C6.5818868,102.474088 47.9793165,92.1513236 47.9793165,92.1513236 C47.9793165,92.1513236 47.8860931,92.0455448 47.7462579,91.8837655 C54.8716374,96.3886969 60.9280547,99.1607231 63.3953688,100.2154 C67.1957784,111.950622 71.0427997,124.746742 74.6629773,138.280203 C74.4703155,138.469983 74.3553399,138.585095 74.3553399,138.585095 C74.4765304,138.588206 74.6070432,138.578873 74.7406635,138.560206 C75.346616,140.837561 75.949461,143.136694 76.5429837,145.454493 C75.7878737,142.156684 65.3748136,135.234397 60.1356553,131.930366 C60.2195564,131.924143 60.272383,131.921032 60.272383,131.921032 C60.272383,131.921032 30.9069941,84.8681437 20.4752893,107.775471 C8.39663676,134.304166 51.6212462,132.509038 59.1474866,132.005033 C68.3113524,140.601114 76.5212315,145.482494 76.5554135,145.50116 C85.5297249,180.495268 92.7079311,219.816973 93.6153061,258" id="Fill-1" fill="#E6E7E8" mask="url(#mask-18)"></path>
                    </g>
                    <g id="Group-6" transform="translate(110.000000, 57.000000)">
                        <mask id="mask-20" fill="white">
                            <use xlink:href="#path-19"></use>
                        </mask>
                        <g id="Clip-5"></g>
                        <path d="M106.615845,34.4714684 C97.1206267,19.9974705 84.1319742,39.6110765 80.5315336,45.6647345 C70.4257514,47.5574644 63.1336003,49.9241462 62.7653734,50.044173 C63.3318763,47.3174109 68.6318256,27.8145989 68.6318256,27.8145989 C75.5400136,14.0546064 85.3688388,1.74724569 75.3039708,0.214596111 C57.2734426,-2.52755403 64.8519924,21.8132602 66.8190163,27.411432 C65.9472313,31.9232077 64.3075202,39.9188374 61.796024,50.3334683 C60.6189569,46.6988113 57.1286696,40.9960008 54.3307747,36.7427443 C54.3528054,31.1999694 53.8618362,3.50763837 41.4396867,11.1093341 C26.1566975,20.4683448 47.5044149,33.8220928 53.0561432,37.0012635 C56.5086636,44.3228967 59.9580368,49.7148687 61.4183554,51.8815059 C59.5551903,59.5201329 57.2388229,68.3774933 54.4346336,78.0534978 C54.0852902,78.1612142 53.8996031,78.2227664 53.8996031,78.2227664 C54.0191982,78.2904738 54.1702656,78.3397155 54.3402165,78.3797244 C54.2583883,78.6720974 54.1702656,78.9613927 54.0884374,79.250688 C52.9931985,75.6129534 48.94585,69.2915433 46.7333415,65.9954235 C45.5216547,58.3691069 40.8920672,35.176241 30.4589723,43.8058583 C14.7290752,56.8118364 47.070096,68.3374844 47.070096,68.3374844 C47.070096,68.3374844 47.057507,68.2266904 47.0354764,68.0604995 C49.7704265,74.1480113 52.5746158,78.6290108 53.7453884,80.4078692 C51.0009966,89.7514919 47.8065498,99.8060424 44.1305754,110.245294 C43.913416,110.285303 43.7875264,110.309924 43.7875264,110.309924 C43.8662074,110.365321 43.9574773,110.414563 44.0550417,110.463804 C43.4350358,112.218042 42.7992936,113.98459 42.1541098,115.760371 C43.1329009,113.273662 39.2901229,104.157782 37.2727432,99.6890932 C37.3325407,99.7198693 37.3703076,99.7414126 37.3703076,99.7414126 C37.3703076,99.7414126 38.934485,56.0455117 21.6341161,66.4078231 C1.59879706,78.4105005 31.3181683,96.3098779 36.5803507,99.3013144 C38.8337734,108.958853 42.1257846,115.769603 42.1383736,115.797302 C31.8248737,144.117465 17.9675834,174.671973 0,201.000923 L6.29132936,201.000923 C15.5536517,184.772688 31.9633522,153.181025 46.1920165,110.934679 C48.6594513,111.143956 52.3637508,110.805419 55.734443,110.359166 C63.8071093,112.648907 92.8529715,119.912066 88.4562796,104.465543 C82.5740912,83.8086278 58.5984299,105.142617 54.3433637,109.134277 C51.0828248,109.312778 48.3982306,109.614384 46.5476544,109.869826 C49.8616964,99.9691557 53.0498488,89.4898951 55.9956638,78.4966736 C59.16808,78.3797244 64.8488451,76.9917225 69.9033098,75.5790997 C69.7018866,75.8283861 69.5822915,75.9761114 69.5822915,75.9761114 C69.5822915,75.9761114 104.784152,82.5191093 98.5022643,67.8573773 C91.9339779,52.5278039 76.5282465,68.0112577 71.3353033,73.8987249 C64.6190967,75.1759329 59.1838162,76.6439526 56.2600318,77.5026057 C58.3686815,69.5746834 60.3451471,61.3790091 62.1516619,52.9432812 L62.1548092,52.9463588 C62.1548092,52.9463588 62.1579564,52.9217379 62.1579564,52.9125051 C62.3593796,51.967679 62.1642509,52.9186603 62.3593796,51.967679 C65.0911825,50.5827546 72.9529838,49.0593379 79.678632,47.1481423 C79.61254,47.2681691 79.5653314,47.3512646 79.5653314,47.3512646 C79.5653314,47.3512646 115.393492,47.8529149 106.615845,34.4714684" id="Fill-4" fill="#E6E7E8" mask="url(#mask-20)"></path>
                    </g>
                    <mask id="mask-22" fill="white">
                        <use xlink:href="#path-21"></use>
                    </mask>
                    <g id="Clip-8"></g>
                    <path d="M2,258 L172,258 C172,258 95.1827112,210.75 2,258" id="Fill-7" fill="#E6E7E8" mask="url(#mask-22)"></path>
                </g>
            </g>
        </g>
    </g>
</svg>